<?xml version="1.0" encoding="UTF-8" standalone="no"?><svg xmlns="http://www.w3.org/2000/svg" xmlns:xlink="http://www.w3.org/1999/xlink" contentScriptType="application/ecmascript" contentStyleType="text/css" height="686px" preserveAspectRatio="none" style="width:3525px;height:686px;" version="1.1" viewBox="0 0 3525 686" width="3525px" zoomAndPan="magnify"><defs><filter height="300%" id="f16edar380vk3y" width="300%" x="-1" y="-1"><feGaussianBlur result="blurOut" stdDeviation="2.0"/><feColorMatrix in="blurOut" result="blurOut2" type="matrix" values="0 0 0 0 0 0 0 0 0 0 0 0 0 0 0 0 0 0 .4 0"/><feOffset dx="4.0" dy="4.0" in="blurOut2" result="blurOut3"/><feBlend in="SourceGraphic" in2="blurOut3" mode="normal"/></filter></defs><g><!--MD5=[7f4e334239bf81777053beefa0bc82da]
cluster refactor.api.general--><polygon fill="#FFFFFF" filter="url(#f16edar380vk3y)" points="16,6,184,6,191,28.2969,3508,28.2969,3508,679,16,679,16,6" style="stroke: #000000; stroke-width: 1.5;"/><line style="stroke: #000000; stroke-width: 1.5;" x1="16" x2="191" y1="28.2969" y2="28.2969"/><text fill="#000000" font-family="sans-serif" font-size="14" font-weight="bold" lengthAdjust="spacingAndGlyphs" textLength="162" x="20" y="20.9951">refactor.api.general</text><!--MD5=[72136138052d025cffdce3c22fbd185f]
class Product--><rect codeLine="5" fill="#FEFECE" filter="url(#f16edar380vk3y)" height="73.6094" id="Product" style="stroke: #A80036; stroke-width: 1.5;" width="104" x="2699" y="137"/><ellipse cx="2725.25" cy="153" fill="#B4A7E5" rx="11" ry="11" style="stroke: #A80036; stroke-width: 1.0;"/><path d="M2726.2031,149.7813 L2727.9219,149.7813 C2728.3125,149.7813 2728.5,149.75 2728.625,149.6719 C2728.8906,149.5156 2729.0313,149.2344 2729.0313,148.9375 C2729.0313,148.6719 2728.9219,148.4063 2728.6875,148.2344 C2728.5156,148.125 2728.375,148.0938 2727.9219,148.0938 L2722.7813,148.0938 C2722.3438,148.0938 2722.2188,148.1094 2722.0625,148.2031 C2721.8125,148.3594 2721.6563,148.6563 2721.6563,148.9375 C2721.6563,149.2188 2721.7969,149.4688 2722.0156,149.6406 C2722.1719,149.75 2722.3594,149.7813 2722.7813,149.7813 L2724.5,149.7813 L2724.5,156.2969 L2722.7813,156.2969 C2722.3438,156.2969 2722.2188,156.3125 2722.0625,156.4219 C2721.8125,156.5781 2721.6563,156.8594 2721.6563,157.1563 C2721.6563,157.4063 2721.7969,157.6719 2722.0156,157.8281 C2722.1719,157.9531 2722.375,158 2722.7813,158 L2727.9219,158 C2728.6719,158 2729.0313,157.7188 2729.0313,157.1563 C2729.0313,156.875 2728.9219,156.625 2728.6875,156.4531 C2728.5156,156.3281 2728.375,156.2969 2727.9219,156.2969 L2726.2031,156.2969 L2726.2031,149.7813 Z "/><text fill="#000000" font-family="sans-serif" font-size="12" font-style="italic" lengthAdjust="spacingAndGlyphs" textLength="47" x="2741.75" y="157.1543">Product</text><line style="stroke: #A80036; stroke-width: 1.5;" x1="2700" x2="2802" y1="169" y2="169"/><line style="stroke: #A80036; stroke-width: 1.5;" x1="2700" x2="2802" y1="177" y2="177"/><text fill="#000000" font-family="sans-serif" font-size="11" lengthAdjust="spacingAndGlyphs" textLength="92" x="2705" y="191.2104">weight(): double</text><text fill="#000000" font-family="sans-serif" font-size="11" lengthAdjust="spacingAndGlyphs" textLength="82" x="2705" y="204.0151">price(): double</text><!--MD5=[9e0b3f4b794482d748b27114ef534ab5]
class FoodConstituent--><rect codeLine="10" fill="#FEFECE" filter="url(#f16edar380vk3y)" height="60.8047" id="FoodConstituent" style="stroke: #A80036; stroke-width: 1.5;" width="156" x="1887" y="143.5"/><ellipse cx="1913.25" cy="159.5" fill="#B4A7E5" rx="11" ry="11" style="stroke: #A80036; stroke-width: 1.0;"/><path d="M1914.2031,156.2813 L1915.9219,156.2813 C1916.3125,156.2813 1916.5,156.25 1916.625,156.1719 C1916.8906,156.0156 1917.0313,155.7344 1917.0313,155.4375 C1917.0313,155.1719 1916.9219,154.9063 1916.6875,154.7344 C1916.5156,154.625 1916.375,154.5938 1915.9219,154.5938 L1910.7813,154.5938 C1910.3438,154.5938 1910.2188,154.6094 1910.0625,154.7031 C1909.8125,154.8594 1909.6563,155.1563 1909.6563,155.4375 C1909.6563,155.7188 1909.7969,155.9688 1910.0156,156.1406 C1910.1719,156.25 1910.3594,156.2813 1910.7813,156.2813 L1912.5,156.2813 L1912.5,162.7969 L1910.7813,162.7969 C1910.3438,162.7969 1910.2188,162.8125 1910.0625,162.9219 C1909.8125,163.0781 1909.6563,163.3594 1909.6563,163.6563 C1909.6563,163.9063 1909.7969,164.1719 1910.0156,164.3281 C1910.1719,164.4531 1910.375,164.5 1910.7813,164.5 L1915.9219,164.5 C1916.6719,164.5 1917.0313,164.2188 1917.0313,163.6563 C1917.0313,163.375 1916.9219,163.125 1916.6875,162.9531 C1916.5156,162.8281 1916.375,162.7969 1915.9219,162.7969 L1914.2031,162.7969 L1914.2031,156.2813 Z "/><text fill="#000000" font-family="sans-serif" font-size="12" font-style="italic" lengthAdjust="spacingAndGlyphs" textLength="99" x="1929.75" y="163.6543">FoodConstituent</text><line style="stroke: #A80036; stroke-width: 1.5;" x1="1888" x2="2042" y1="175.5" y2="175.5"/><line style="stroke: #A80036; stroke-width: 1.5;" x1="1888" x2="2042" y1="183.5" y2="183.5"/><text fill="#000000" font-family="sans-serif" font-size="11" lengthAdjust="spacingAndGlyphs" textLength="144" x="1893" y="197.7104">caloriesPer100g(): double</text><!--MD5=[e77b7d1a96af7026c816c616268d7510]
class FoodProduct--><rect codeLine="14" fill="#FEFECE" filter="url(#f16edar380vk3y)" height="60.8047" id="FoodProduct" style="stroke: #A80036; stroke-width: 1.5;" width="110" x="1899" y="411.5"/><ellipse cx="1914.9" cy="427.5" fill="#B4A7E5" rx="11" ry="11" style="stroke: #A80036; stroke-width: 1.0;"/><path d="M1915.8531,424.2813 L1917.5719,424.2813 C1917.9625,424.2813 1918.15,424.25 1918.275,424.1719 C1918.5406,424.0156 1918.6813,423.7344 1918.6813,423.4375 C1918.6813,423.1719 1918.5719,422.9063 1918.3375,422.7344 C1918.1656,422.625 1918.025,422.5938 1917.5719,422.5938 L1912.4313,422.5938 C1911.9938,422.5938 1911.8688,422.6094 1911.7125,422.7031 C1911.4625,422.8594 1911.3063,423.1563 1911.3063,423.4375 C1911.3063,423.7188 1911.4469,423.9688 1911.6656,424.1406 C1911.8219,424.25 1912.0094,424.2813 1912.4313,424.2813 L1914.15,424.2813 L1914.15,430.7969 L1912.4313,430.7969 C1911.9938,430.7969 1911.8688,430.8125 1911.7125,430.9219 C1911.4625,431.0781 1911.3063,431.3594 1911.3063,431.6563 C1911.3063,431.9063 1911.4469,432.1719 1911.6656,432.3281 C1911.8219,432.4531 1912.025,432.5 1912.4313,432.5 L1917.5719,432.5 C1918.3219,432.5 1918.6813,432.2188 1918.6813,431.6563 C1918.6813,431.375 1918.5719,431.125 1918.3375,430.9531 C1918.1656,430.8281 1918.025,430.7969 1917.5719,430.7969 L1915.8531,430.7969 L1915.8531,424.2813 Z "/><text fill="#000000" font-family="sans-serif" font-size="12" font-style="italic" lengthAdjust="spacingAndGlyphs" textLength="76" x="1929.1" y="431.6543">FoodProduct</text><line style="stroke: #A80036; stroke-width: 1.5;" x1="1900" x2="2008" y1="443.5" y2="443.5"/><line style="stroke: #A80036; stroke-width: 1.5;" x1="1900" x2="2008" y1="451.5" y2="451.5"/><text fill="#000000" font-family="sans-serif" font-size="11" lengthAdjust="spacingAndGlyphs" textLength="98" x="1905" y="465.7104">calories(): double</text><!--MD5=[267e0d92167c07fa8d7542fe21f0b91e]
class Menus--><rect codeLine="18" fill="#FEFECE" filter="url(#f16edar380vk3y)" height="60.8047" id="Menus" style="stroke: #A80036; stroke-width: 1.5;" width="183" x="482.5" y="589.5"/><ellipse cx="550.25" cy="605.5" fill="#EB937F" rx="11" ry="11" style="stroke: #A80036; stroke-width: 1.0;"/><path d="M549.0469,606.375 L550.5,606.375 L550.5,606.4844 C550.5,606.8906 550.5313,607.0469 550.6094,607.2031 C550.7656,607.4531 551.0469,607.6094 551.3438,607.6094 C551.5938,607.6094 551.8594,607.4688 552.0156,607.25 C552.1406,607.0938 552.1719,606.9375 552.1719,606.4844 L552.1719,604.5625 C552.1719,604.4063 552.1719,604.3594 552.1563,604.2031 C552.0938,603.7344 551.7813,603.4219 551.3281,603.4219 C551.0781,603.4219 550.8125,603.5625 550.6406,603.7813 C550.5313,603.9531 550.5,604.1094 550.5,604.5625 L550.5,604.6875 L549.0469,604.6875 L549.0469,602.2813 L553.0313,602.2813 L553.0313,603.1406 C553.0313,603.5469 553.0625,603.7188 553.1406,603.875 C553.3125,604.125 553.5938,604.2813 553.875,604.2813 C554.1406,604.2813 554.4063,604.1406 554.5781,603.9219 C554.6875,603.75 554.7188,603.6094 554.7188,603.1406 L554.7188,600.5938 L547.0938,600.5938 C546.6563,600.5938 546.5313,600.6094 546.375,600.7031 C546.125,600.8594 545.9688,601.1563 545.9688,601.4375 C545.9688,601.7188 546.1094,601.9688 546.3281,602.1406 C546.4844,602.25 546.6719,602.2813 547.0938,602.2813 L547.3438,602.2813 L547.3438,608.7969 L547.0938,608.7969 C546.6875,608.7969 546.5313,608.8125 546.375,608.9219 C546.125,609.0938 545.9688,609.3594 545.9688,609.6563 C545.9688,609.9219 546.1094,610.1719 546.3281,610.3281 C546.4688,610.4531 546.7031,610.5 547.0938,610.5 L555.0938,610.5 L555.0938,607.9219 C555.0938,607.4844 555.0625,607.3438 554.9844,607.1875 C554.8125,606.9375 554.5313,606.7813 554.25,606.7813 C553.9844,606.7813 553.7188,606.8906 553.5469,607.1406 C553.4375,607.2969 553.4063,607.4375 553.4063,607.9219 L553.4063,608.7969 L549.0469,608.7969 L549.0469,606.375 Z "/><text fill="#000000" font-family="sans-serif" font-size="12" lengthAdjust="spacingAndGlyphs" textLength="39" x="570.75" y="609.6543">Menus</text><line style="stroke: #A80036; stroke-width: 1.5;" x1="483.5" x2="664.5" y1="621.5" y2="621.5"/><text fill="#000000" font-family="sans-serif" font-size="11" lengthAdjust="spacingAndGlyphs" textLength="171" x="488.5" y="635.7104">MEAT, FISH, CHEESE, CUSTOM</text><line style="stroke: #A80036; stroke-width: 1.5;" x1="483.5" x2="664.5" y1="642.3047" y2="642.3047"/><!--MD5=[6261118912b904311a9f2c70e511e1d6]
class SauceType--><rect codeLine="22" fill="#FEFECE" filter="url(#f16edar380vk3y)" height="73.6094" id="SauceType" style="stroke: #A80036; stroke-width: 1.5;" width="197" x="3271.5" y="583"/><ellipse cx="3332.25" cy="599" fill="#EB937F" rx="11" ry="11" style="stroke: #A80036; stroke-width: 1.0;"/><path d="M3331.0469,599.875 L3332.5,599.875 L3332.5,599.9844 C3332.5,600.3906 3332.5313,600.5469 3332.6094,600.7031 C3332.7656,600.9531 3333.0469,601.1094 3333.3438,601.1094 C3333.5938,601.1094 3333.8594,600.9688 3334.0156,600.75 C3334.1406,600.5938 3334.1719,600.4375 3334.1719,599.9844 L3334.1719,598.0625 C3334.1719,597.9063 3334.1719,597.8594 3334.1563,597.7031 C3334.0938,597.2344 3333.7813,596.9219 3333.3281,596.9219 C3333.0781,596.9219 3332.8125,597.0625 3332.6406,597.2813 C3332.5313,597.4531 3332.5,597.6094 3332.5,598.0625 L3332.5,598.1875 L3331.0469,598.1875 L3331.0469,595.7813 L3335.0313,595.7813 L3335.0313,596.6406 C3335.0313,597.0469 3335.0625,597.2188 3335.1406,597.375 C3335.3125,597.625 3335.5938,597.7813 3335.875,597.7813 C3336.1406,597.7813 3336.4063,597.6406 3336.5781,597.4219 C3336.6875,597.25 3336.7188,597.1094 3336.7188,596.6406 L3336.7188,594.0938 L3329.0938,594.0938 C3328.6563,594.0938 3328.5313,594.1094 3328.375,594.2031 C3328.125,594.3594 3327.9688,594.6563 3327.9688,594.9375 C3327.9688,595.2188 3328.1094,595.4688 3328.3281,595.6406 C3328.4844,595.75 3328.6719,595.7813 3329.0938,595.7813 L3329.3438,595.7813 L3329.3438,602.2969 L3329.0938,602.2969 C3328.6875,602.2969 3328.5313,602.3125 3328.375,602.4219 C3328.125,602.5938 3327.9688,602.8594 3327.9688,603.1563 C3327.9688,603.4219 3328.1094,603.6719 3328.3281,603.8281 C3328.4688,603.9531 3328.7031,604 3329.0938,604 L3337.0938,604 L3337.0938,601.4219 C3337.0938,600.9844 3337.0625,600.8438 3336.9844,600.6875 C3336.8125,600.4375 3336.5313,600.2813 3336.25,600.2813 C3335.9844,600.2813 3335.7188,600.3906 3335.5469,600.6406 C3335.4375,600.7969 3335.4063,600.9375 3335.4063,601.4219 L3335.4063,602.2969 L3331.0469,602.2969 L3331.0469,599.875 Z "/><text fill="#000000" font-family="sans-serif" font-size="12" lengthAdjust="spacingAndGlyphs" textLength="67" x="3352.75" y="603.1543">SauceType</text><line style="stroke: #A80036; stroke-width: 1.5;" x1="3272.5" x2="3467.5" y1="615" y2="615"/><text fill="#000000" font-family="sans-serif" font-size="11" lengthAdjust="spacingAndGlyphs" textLength="185" x="3277.5" y="629.2104">BURGER, BARBECUE, BEARNAISE</text><line style="stroke: #A80036; stroke-width: 1.5;" x1="3272.5" x2="3467.5" y1="635.8047" y2="635.8047"/><ellipse cx="3282.5" cy="646.8047" fill="#84BE84" rx="3" ry="3" style="stroke: #038048; stroke-width: 1.0;"/><text fill="#000000" font-family="sans-serif" font-size="11" lengthAdjust="spacingAndGlyphs" textLength="144" x="3291.5" y="650.0151">caloriesPer100g(): double</text><!--MD5=[278f2396e85d3252a184029305fccabc]
class MeatType--><rect codeLine="27" fill="#FEFECE" filter="url(#f16edar380vk3y)" height="86.4141" id="MeatType" style="stroke: #A80036; stroke-width: 1.5;" width="170" x="1273" y="577"/><ellipse cx="1324.25" cy="593" fill="#EB937F" rx="11" ry="11" style="stroke: #A80036; stroke-width: 1.0;"/><path d="M1323.0469,593.875 L1324.5,593.875 L1324.5,593.9844 C1324.5,594.3906 1324.5313,594.5469 1324.6094,594.7031 C1324.7656,594.9531 1325.0469,595.1094 1325.3438,595.1094 C1325.5938,595.1094 1325.8594,594.9688 1326.0156,594.75 C1326.1406,594.5938 1326.1719,594.4375 1326.1719,593.9844 L1326.1719,592.0625 C1326.1719,591.9063 1326.1719,591.8594 1326.1563,591.7031 C1326.0938,591.2344 1325.7813,590.9219 1325.3281,590.9219 C1325.0781,590.9219 1324.8125,591.0625 1324.6406,591.2813 C1324.5313,591.4531 1324.5,591.6094 1324.5,592.0625 L1324.5,592.1875 L1323.0469,592.1875 L1323.0469,589.7813 L1327.0313,589.7813 L1327.0313,590.6406 C1327.0313,591.0469 1327.0625,591.2188 1327.1406,591.375 C1327.3125,591.625 1327.5938,591.7813 1327.875,591.7813 C1328.1406,591.7813 1328.4063,591.6406 1328.5781,591.4219 C1328.6875,591.25 1328.7188,591.1094 1328.7188,590.6406 L1328.7188,588.0938 L1321.0938,588.0938 C1320.6563,588.0938 1320.5313,588.1094 1320.375,588.2031 C1320.125,588.3594 1319.9688,588.6563 1319.9688,588.9375 C1319.9688,589.2188 1320.1094,589.4688 1320.3281,589.6406 C1320.4844,589.75 1320.6719,589.7813 1321.0938,589.7813 L1321.3438,589.7813 L1321.3438,596.2969 L1321.0938,596.2969 C1320.6875,596.2969 1320.5313,596.3125 1320.375,596.4219 C1320.125,596.5938 1319.9688,596.8594 1319.9688,597.1563 C1319.9688,597.4219 1320.1094,597.6719 1320.3281,597.8281 C1320.4688,597.9531 1320.7031,598 1321.0938,598 L1329.0938,598 L1329.0938,595.4219 C1329.0938,594.9844 1329.0625,594.8438 1328.9844,594.6875 C1328.8125,594.4375 1328.5313,594.2813 1328.25,594.2813 C1327.9844,594.2813 1327.7188,594.3906 1327.5469,594.6406 C1327.4375,594.7969 1327.4063,594.9375 1327.4063,595.4219 L1327.4063,596.2969 L1323.0469,596.2969 L1323.0469,593.875 Z "/><text fill="#000000" font-family="sans-serif" font-size="12" lengthAdjust="spacingAndGlyphs" textLength="59" x="1344.75" y="597.1543">MeatType</text><line style="stroke: #A80036; stroke-width: 1.5;" x1="1274" x2="1442" y1="609" y2="609"/><text fill="#000000" font-family="sans-serif" font-size="11" lengthAdjust="spacingAndGlyphs" textLength="96" x="1279" y="623.2104">BEEF, WHITEFISH</text><line style="stroke: #A80036; stroke-width: 1.5;" x1="1274" x2="1442" y1="629.8047" y2="629.8047"/><ellipse cx="1284" cy="640.8047" fill="#84BE84" rx="3" ry="3" style="stroke: #038048; stroke-width: 1.0;"/><text fill="#000000" font-family="sans-serif" font-size="11" lengthAdjust="spacingAndGlyphs" textLength="82" x="1293" y="644.0151">price(): double</text><ellipse cx="1284" cy="653.6094" fill="#84BE84" rx="3" ry="3" style="stroke: #038048; stroke-width: 1.0;"/><text fill="#000000" font-family="sans-serif" font-size="11" lengthAdjust="spacingAndGlyphs" textLength="144" x="1293" y="656.8198">caloriesPer100g(): double</text><!--MD5=[a4524023ca001bc9b6ae32db5954c4fc]
class MeatSize--><rect codeLine="33" fill="#FEFECE" filter="url(#f16edar380vk3y)" height="60.8047" id="MeatSize" style="stroke: #A80036; stroke-width: 1.5;" width="127" x="968.5" y="589.5"/><ellipse cx="1001.5" cy="605.5" fill="#EB937F" rx="11" ry="11" style="stroke: #A80036; stroke-width: 1.0;"/><path d="M1000.2969,606.375 L1001.75,606.375 L1001.75,606.4844 C1001.75,606.8906 1001.7813,607.0469 1001.8594,607.2031 C1002.0156,607.4531 1002.2969,607.6094 1002.5938,607.6094 C1002.8438,607.6094 1003.1094,607.4688 1003.2656,607.25 C1003.3906,607.0938 1003.4219,606.9375 1003.4219,606.4844 L1003.4219,604.5625 C1003.4219,604.4063 1003.4219,604.3594 1003.4063,604.2031 C1003.3438,603.7344 1003.0313,603.4219 1002.5781,603.4219 C1002.3281,603.4219 1002.0625,603.5625 1001.8906,603.7813 C1001.7813,603.9531 1001.75,604.1094 1001.75,604.5625 L1001.75,604.6875 L1000.2969,604.6875 L1000.2969,602.2813 L1004.2813,602.2813 L1004.2813,603.1406 C1004.2813,603.5469 1004.3125,603.7188 1004.3906,603.875 C1004.5625,604.125 1004.8438,604.2813 1005.125,604.2813 C1005.3906,604.2813 1005.6563,604.1406 1005.8281,603.9219 C1005.9375,603.75 1005.9688,603.6094 1005.9688,603.1406 L1005.9688,600.5938 L998.3438,600.5938 C997.9063,600.5938 997.7813,600.6094 997.625,600.7031 C997.375,600.8594 997.2188,601.1563 997.2188,601.4375 C997.2188,601.7188 997.3594,601.9688 997.5781,602.1406 C997.7344,602.25 997.9219,602.2813 998.3438,602.2813 L998.5938,602.2813 L998.5938,608.7969 L998.3438,608.7969 C997.9375,608.7969 997.7813,608.8125 997.625,608.9219 C997.375,609.0938 997.2188,609.3594 997.2188,609.6563 C997.2188,609.9219 997.3594,610.1719 997.5781,610.3281 C997.7188,610.4531 997.9531,610.5 998.3438,610.5 L1006.3438,610.5 L1006.3438,607.9219 C1006.3438,607.4844 1006.3125,607.3438 1006.2344,607.1875 C1006.0625,606.9375 1005.7813,606.7813 1005.5,606.7813 C1005.2344,606.7813 1004.9688,606.8906 1004.7969,607.1406 C1004.6875,607.2969 1004.6563,607.4375 1004.6563,607.9219 L1004.6563,608.7969 L1000.2969,608.7969 L1000.2969,606.375 Z "/><text fill="#000000" font-family="sans-serif" font-size="12" lengthAdjust="spacingAndGlyphs" textLength="55" x="1019.5" y="609.6543">MeatSize</text><line style="stroke: #A80036; stroke-width: 1.5;" x1="969.5" x2="1094.5" y1="621.5" y2="621.5"/><text fill="#000000" font-family="sans-serif" font-size="11" lengthAdjust="spacingAndGlyphs" textLength="115" x="974.5" y="635.7104">LITTLE, MEIDUM, BIG</text><line style="stroke: #A80036; stroke-width: 1.5;" x1="969.5" x2="1094.5" y1="642.3047" y2="642.3047"/><!--MD5=[2d3ed19705c3edfd5bfb43980ec82366]
class Cheddar--><rect codeLine="37" fill="#FEFECE" filter="url(#f16edar380vk3y)" height="124.8281" id="Cheddar" style="stroke: #A80036; stroke-width: 1.5;" width="170" x="2355" y="379.5"/><ellipse cx="2410.25" cy="395.5" fill="#ADD1B2" rx="11" ry="11" style="stroke: #A80036; stroke-width: 1.0;"/><path d="M2412.5938,391.1719 C2411.6563,390.7344 2411.0625,390.5938 2410.1875,390.5938 C2407.5625,390.5938 2405.5625,392.6719 2405.5625,395.3906 L2405.5625,396.5156 C2405.5625,399.0938 2407.6719,400.9844 2410.5625,400.9844 C2411.7813,400.9844 2412.9375,400.6875 2413.6875,400.1406 C2414.2656,399.7344 2414.5938,399.2813 2414.5938,398.8906 C2414.5938,398.4375 2414.2031,398.0469 2413.7344,398.0469 C2413.5156,398.0469 2413.3125,398.125 2413.125,398.3125 C2412.6719,398.7969 2412.6719,398.7969 2412.4844,398.8906 C2412.0625,399.1563 2411.375,399.2813 2410.6094,399.2813 C2408.5625,399.2813 2407.2656,398.1875 2407.2656,396.4844 L2407.2656,395.3906 C2407.2656,393.6094 2408.5156,392.2969 2410.25,392.2969 C2410.8281,392.2969 2411.4375,392.4531 2411.9063,392.7031 C2412.3906,392.9844 2412.5625,393.2031 2412.6563,393.6094 C2412.7188,394.0156 2412.75,394.1406 2412.8906,394.2656 C2413.0313,394.4063 2413.2656,394.5156 2413.4844,394.5156 C2413.75,394.5156 2414.0156,394.375 2414.1875,394.1563 C2414.2969,394 2414.3281,393.8125 2414.3281,393.3906 L2414.3281,391.9688 C2414.3281,391.5313 2414.3125,391.4063 2414.2188,391.25 C2414.0625,390.9844 2413.7813,390.8438 2413.4844,390.8438 C2413.1875,390.8438 2412.9844,390.9375 2412.7656,391.25 L2412.5938,391.1719 Z "/><text fill="#000000" font-family="sans-serif" font-size="12" lengthAdjust="spacingAndGlyphs" textLength="51" x="2430.75" y="399.6543">Cheddar</text><line style="stroke: #A80036; stroke-width: 1.5;" x1="2356" x2="2524" y1="411.5" y2="411.5"/><rect fill="none" height="6" style="stroke: #C82930; stroke-width: 1.0;" width="6" x="2363" y="419.5"/><text fill="#000000" font-family="sans-serif" font-size="11" lengthAdjust="spacingAndGlyphs" textLength="84" x="2375" y="425.7104">weight: double</text><rect fill="none" height="6" style="stroke: #C82930; stroke-width: 1.0;" width="6" x="2363" y="432.3047"/><text fill="#000000" font-family="sans-serif" font-size="11" lengthAdjust="spacingAndGlyphs" textLength="138" x="2375" y="438.5151">BASE_PRICE: double = 4</text><line style="stroke: #A80036; stroke-width: 1.5;" x1="2356" x2="2524" y1="445.1094" y2="445.1094"/><ellipse cx="2366" cy="456.1094" fill="#84BE84" rx="3" ry="3" style="stroke: #038048; stroke-width: 1.0;"/><text fill="#000000" font-family="sans-serif" font-size="11" lengthAdjust="spacingAndGlyphs" textLength="112" x="2375" y="459.3198">this(weight: double)</text><ellipse cx="2366" cy="468.9141" fill="#84BE84" rx="3" ry="3" style="stroke: #038048; stroke-width: 1.0;"/><text fill="#000000" font-family="sans-serif" font-size="11" lengthAdjust="spacingAndGlyphs" textLength="92" x="2375" y="472.1245">weight(): double</text><ellipse cx="2366" cy="481.7188" fill="#84BE84" rx="3" ry="3" style="stroke: #038048; stroke-width: 1.0;"/><text fill="#000000" font-family="sans-serif" font-size="11" lengthAdjust="spacingAndGlyphs" textLength="82" x="2375" y="484.9292">price(): double</text><ellipse cx="2366" cy="494.5234" fill="#84BE84" rx="3" ry="3" style="stroke: #038048; stroke-width: 1.0;"/><text fill="#000000" font-family="sans-serif" font-size="11" lengthAdjust="spacingAndGlyphs" textLength="144" x="2375" y="497.7339">caloriesPer100g(): double</text><!--MD5=[7796c90f8f478034c9932ef145adcb79]
class DeepFriedOnions--><rect codeLine="46" fill="#FEFECE" filter="url(#f16edar380vk3y)" height="124.8281" id="DeepFriedOnions" style="stroke: #A80036; stroke-width: 1.5;" width="174" x="2560" y="379.5"/><ellipse cx="2591.2" cy="395.5" fill="#ADD1B2" rx="11" ry="11" style="stroke: #A80036; stroke-width: 1.0;"/><path d="M2593.5438,391.1719 C2592.6063,390.7344 2592.0125,390.5938 2591.1375,390.5938 C2588.5125,390.5938 2586.5125,392.6719 2586.5125,395.3906 L2586.5125,396.5156 C2586.5125,399.0938 2588.6219,400.9844 2591.5125,400.9844 C2592.7313,400.9844 2593.8875,400.6875 2594.6375,400.1406 C2595.2156,399.7344 2595.5438,399.2813 2595.5438,398.8906 C2595.5438,398.4375 2595.1531,398.0469 2594.6844,398.0469 C2594.4656,398.0469 2594.2625,398.125 2594.075,398.3125 C2593.6219,398.7969 2593.6219,398.7969 2593.4344,398.8906 C2593.0125,399.1563 2592.325,399.2813 2591.5594,399.2813 C2589.5125,399.2813 2588.2156,398.1875 2588.2156,396.4844 L2588.2156,395.3906 C2588.2156,393.6094 2589.4656,392.2969 2591.2,392.2969 C2591.7781,392.2969 2592.3875,392.4531 2592.8563,392.7031 C2593.3406,392.9844 2593.5125,393.2031 2593.6063,393.6094 C2593.6688,394.0156 2593.7,394.1406 2593.8406,394.2656 C2593.9813,394.4063 2594.2156,394.5156 2594.4344,394.5156 C2594.7,394.5156 2594.9656,394.375 2595.1375,394.1563 C2595.2469,394 2595.2781,393.8125 2595.2781,393.3906 L2595.2781,391.9688 C2595.2781,391.5313 2595.2625,391.4063 2595.1688,391.25 C2595.0125,390.9844 2594.7313,390.8438 2594.4344,390.8438 C2594.1375,390.8438 2593.9344,390.9375 2593.7156,391.25 L2593.5438,391.1719 Z "/><text fill="#000000" font-family="sans-serif" font-size="12" lengthAdjust="spacingAndGlyphs" textLength="106" x="2608.8" y="399.6543">DeepFriedOnions</text><line style="stroke: #A80036; stroke-width: 1.5;" x1="2561" x2="2733" y1="411.5" y2="411.5"/><rect fill="none" height="6" style="stroke: #C82930; stroke-width: 1.0;" width="6" x="2568" y="419.5"/><text fill="#000000" font-family="sans-serif" font-size="11" lengthAdjust="spacingAndGlyphs" textLength="84" x="2580" y="425.7104">weight: double</text><rect fill="none" height="6" style="stroke: #C82930; stroke-width: 1.0;" width="6" x="2568" y="432.3047"/><text fill="#000000" font-family="sans-serif" font-size="11" lengthAdjust="spacingAndGlyphs" textLength="148" x="2580" y="438.5151">BASE_PRICE: double = 1.5</text><line style="stroke: #A80036; stroke-width: 1.5;" x1="2561" x2="2733" y1="445.1094" y2="445.1094"/><ellipse cx="2571" cy="456.1094" fill="#84BE84" rx="3" ry="3" style="stroke: #038048; stroke-width: 1.0;"/><text fill="#000000" font-family="sans-serif" font-size="11" lengthAdjust="spacingAndGlyphs" textLength="112" x="2580" y="459.3198">this(weight: double)</text><ellipse cx="2571" cy="468.9141" fill="#84BE84" rx="3" ry="3" style="stroke: #038048; stroke-width: 1.0;"/><text fill="#000000" font-family="sans-serif" font-size="11" lengthAdjust="spacingAndGlyphs" textLength="92" x="2580" y="472.1245">weight(): double</text><ellipse cx="2571" cy="481.7188" fill="#84BE84" rx="3" ry="3" style="stroke: #038048; stroke-width: 1.0;"/><text fill="#000000" font-family="sans-serif" font-size="11" lengthAdjust="spacingAndGlyphs" textLength="82" x="2580" y="484.9292">price(): double</text><ellipse cx="2571" cy="494.5234" fill="#84BE84" rx="3" ry="3" style="stroke: #038048; stroke-width: 1.0;"/><text fill="#000000" font-family="sans-serif" font-size="11" lengthAdjust="spacingAndGlyphs" textLength="144" x="2580" y="497.7339">caloriesPer100g(): double</text><!--MD5=[9ca51864fb0abf801f40b4a3bc784282]
class Tomato--><rect codeLine="55" fill="#FEFECE" filter="url(#f16edar380vk3y)" height="124.8281" id="Tomato" style="stroke: #A80036; stroke-width: 1.5;" width="174" x="2769" y="379.5"/><ellipse cx="2829.25" cy="395.5" fill="#ADD1B2" rx="11" ry="11" style="stroke: #A80036; stroke-width: 1.0;"/><path d="M2831.5938,391.1719 C2830.6563,390.7344 2830.0625,390.5938 2829.1875,390.5938 C2826.5625,390.5938 2824.5625,392.6719 2824.5625,395.3906 L2824.5625,396.5156 C2824.5625,399.0938 2826.6719,400.9844 2829.5625,400.9844 C2830.7813,400.9844 2831.9375,400.6875 2832.6875,400.1406 C2833.2656,399.7344 2833.5938,399.2813 2833.5938,398.8906 C2833.5938,398.4375 2833.2031,398.0469 2832.7344,398.0469 C2832.5156,398.0469 2832.3125,398.125 2832.125,398.3125 C2831.6719,398.7969 2831.6719,398.7969 2831.4844,398.8906 C2831.0625,399.1563 2830.375,399.2813 2829.6094,399.2813 C2827.5625,399.2813 2826.2656,398.1875 2826.2656,396.4844 L2826.2656,395.3906 C2826.2656,393.6094 2827.5156,392.2969 2829.25,392.2969 C2829.8281,392.2969 2830.4375,392.4531 2830.9063,392.7031 C2831.3906,392.9844 2831.5625,393.2031 2831.6563,393.6094 C2831.7188,394.0156 2831.75,394.1406 2831.8906,394.2656 C2832.0313,394.4063 2832.2656,394.5156 2832.4844,394.5156 C2832.75,394.5156 2833.0156,394.375 2833.1875,394.1563 C2833.2969,394 2833.3281,393.8125 2833.3281,393.3906 L2833.3281,391.9688 C2833.3281,391.5313 2833.3125,391.4063 2833.2188,391.25 C2833.0625,390.9844 2832.7813,390.8438 2832.4844,390.8438 C2832.1875,390.8438 2831.9844,390.9375 2831.7656,391.25 L2831.5938,391.1719 Z "/><text fill="#000000" font-family="sans-serif" font-size="12" lengthAdjust="spacingAndGlyphs" textLength="45" x="2849.75" y="399.6543">Tomato</text><line style="stroke: #A80036; stroke-width: 1.5;" x1="2770" x2="2942" y1="411.5" y2="411.5"/><rect fill="none" height="6" style="stroke: #C82930; stroke-width: 1.0;" width="6" x="2777" y="419.5"/><text fill="#000000" font-family="sans-serif" font-size="11" lengthAdjust="spacingAndGlyphs" textLength="84" x="2789" y="425.7104">weight: double</text><rect fill="none" height="6" style="stroke: #C82930; stroke-width: 1.0;" width="6" x="2777" y="432.3047"/><text fill="#000000" font-family="sans-serif" font-size="11" lengthAdjust="spacingAndGlyphs" textLength="148" x="2789" y="438.5151">BASE_PRICE: double = 0.5</text><line style="stroke: #A80036; stroke-width: 1.5;" x1="2770" x2="2942" y1="445.1094" y2="445.1094"/><ellipse cx="2780" cy="456.1094" fill="#84BE84" rx="3" ry="3" style="stroke: #038048; stroke-width: 1.0;"/><text fill="#000000" font-family="sans-serif" font-size="11" lengthAdjust="spacingAndGlyphs" textLength="112" x="2789" y="459.3198">this(weight: double)</text><ellipse cx="2780" cy="468.9141" fill="#84BE84" rx="3" ry="3" style="stroke: #038048; stroke-width: 1.0;"/><text fill="#000000" font-family="sans-serif" font-size="11" lengthAdjust="spacingAndGlyphs" textLength="92" x="2789" y="472.1245">weight(): double</text><ellipse cx="2780" cy="481.7188" fill="#84BE84" rx="3" ry="3" style="stroke: #038048; stroke-width: 1.0;"/><text fill="#000000" font-family="sans-serif" font-size="11" lengthAdjust="spacingAndGlyphs" textLength="82" x="2789" y="484.9292">price(): double</text><ellipse cx="2780" cy="494.5234" fill="#84BE84" rx="3" ry="3" style="stroke: #038048; stroke-width: 1.0;"/><text fill="#000000" font-family="sans-serif" font-size="11" lengthAdjust="spacingAndGlyphs" textLength="144" x="2789" y="497.7339">caloriesPer100g(): double</text><!--MD5=[3d2d9012ebc99b12a467e2a114f0ed0c]
class Sauce--><rect codeLine="64" fill="#FEFECE" filter="url(#f16edar380vk3y)" height="137.6328" id="Sauce" style="stroke: #A80036; stroke-width: 1.5;" width="243" x="3248.5" y="373"/><ellipse cx="3347.25" cy="389" fill="#ADD1B2" rx="11" ry="11" style="stroke: #A80036; stroke-width: 1.0;"/><path d="M3349.5938,384.6719 C3348.6563,384.2344 3348.0625,384.0938 3347.1875,384.0938 C3344.5625,384.0938 3342.5625,386.1719 3342.5625,388.8906 L3342.5625,390.0156 C3342.5625,392.5938 3344.6719,394.4844 3347.5625,394.4844 C3348.7813,394.4844 3349.9375,394.1875 3350.6875,393.6406 C3351.2656,393.2344 3351.5938,392.7813 3351.5938,392.3906 C3351.5938,391.9375 3351.2031,391.5469 3350.7344,391.5469 C3350.5156,391.5469 3350.3125,391.625 3350.125,391.8125 C3349.6719,392.2969 3349.6719,392.2969 3349.4844,392.3906 C3349.0625,392.6563 3348.375,392.7813 3347.6094,392.7813 C3345.5625,392.7813 3344.2656,391.6875 3344.2656,389.9844 L3344.2656,388.8906 C3344.2656,387.1094 3345.5156,385.7969 3347.25,385.7969 C3347.8281,385.7969 3348.4375,385.9531 3348.9063,386.2031 C3349.3906,386.4844 3349.5625,386.7031 3349.6563,387.1094 C3349.7188,387.5156 3349.75,387.6406 3349.8906,387.7656 C3350.0313,387.9063 3350.2656,388.0156 3350.4844,388.0156 C3350.75,388.0156 3351.0156,387.875 3351.1875,387.6563 C3351.2969,387.5 3351.3281,387.3125 3351.3281,386.8906 L3351.3281,385.4688 C3351.3281,385.0313 3351.3125,384.9063 3351.2188,384.75 C3351.0625,384.4844 3350.7813,384.3438 3350.4844,384.3438 C3350.1875,384.3438 3349.9844,384.4375 3349.7656,384.75 L3349.5938,384.6719 Z "/><text fill="#000000" font-family="sans-serif" font-size="12" lengthAdjust="spacingAndGlyphs" textLength="37" x="3367.75" y="393.1543">Sauce</text><line style="stroke: #A80036; stroke-width: 1.5;" x1="3249.5" x2="3490.5" y1="405" y2="405"/><rect fill="none" height="6" style="stroke: #C82930; stroke-width: 1.0;" width="6" x="3256.5" y="413"/><text fill="#000000" font-family="sans-serif" font-size="11" lengthAdjust="spacingAndGlyphs" textLength="84" x="3268.5" y="419.2104">weight: double</text><rect fill="none" height="6" style="stroke: #C82930; stroke-width: 1.0;" width="6" x="3256.5" y="425.8047"/><text fill="#000000" font-family="sans-serif" font-size="11" lengthAdjust="spacingAndGlyphs" textLength="98" x="3268.5" y="432.0151">type: SauceType</text><rect fill="none" height="6" style="stroke: #C82930; stroke-width: 1.0;" width="6" x="3256.5" y="438.6094"/><text fill="#000000" font-family="sans-serif" font-size="11" lengthAdjust="spacingAndGlyphs" text-decoration="underline" textLength="138" x="3268.5" y="444.8198">BASE_PRICE: double = 1</text><line style="stroke: #A80036; stroke-width: 1.5;" x1="3249.5" x2="3490.5" y1="451.4141" y2="451.4141"/><ellipse cx="3259.5" cy="462.4141" fill="#84BE84" rx="3" ry="3" style="stroke: #038048; stroke-width: 1.0;"/><text fill="#000000" font-family="sans-serif" font-size="11" lengthAdjust="spacingAndGlyphs" textLength="217" x="3268.5" y="465.6245">this(type: SauceType, weight: double)</text><ellipse cx="3259.5" cy="475.2188" fill="#84BE84" rx="3" ry="3" style="stroke: #038048; stroke-width: 1.0;"/><text fill="#000000" font-family="sans-serif" font-size="11" lengthAdjust="spacingAndGlyphs" textLength="92" x="3268.5" y="478.4292">weight(): double</text><ellipse cx="3259.5" cy="488.0234" fill="#84BE84" rx="3" ry="3" style="stroke: #038048; stroke-width: 1.0;"/><text fill="#000000" font-family="sans-serif" font-size="11" lengthAdjust="spacingAndGlyphs" textLength="82" x="3268.5" y="491.2339">price(): double</text><ellipse cx="3259.5" cy="500.8281" fill="#84BE84" rx="3" ry="3" style="stroke: #038048; stroke-width: 1.0;"/><text fill="#000000" font-family="sans-serif" font-size="11" lengthAdjust="spacingAndGlyphs" textLength="144" x="3268.5" y="504.0386">caloriesPer100g(): double</text><!--MD5=[e37bafabbabd2979e8ef9d15fdfd84c9]
class Meat--><rect codeLine="75" fill="#FEFECE" filter="url(#f16edar380vk3y)" height="124.8281" id="Meat" style="stroke: #A80036; stroke-width: 1.5;" width="235" x="2978.5" y="379.5"/><ellipse cx="3077.25" cy="395.5" fill="#ADD1B2" rx="11" ry="11" style="stroke: #A80036; stroke-width: 1.0;"/><path d="M3079.5938,391.1719 C3078.6563,390.7344 3078.0625,390.5938 3077.1875,390.5938 C3074.5625,390.5938 3072.5625,392.6719 3072.5625,395.3906 L3072.5625,396.5156 C3072.5625,399.0938 3074.6719,400.9844 3077.5625,400.9844 C3078.7813,400.9844 3079.9375,400.6875 3080.6875,400.1406 C3081.2656,399.7344 3081.5938,399.2813 3081.5938,398.8906 C3081.5938,398.4375 3081.2031,398.0469 3080.7344,398.0469 C3080.5156,398.0469 3080.3125,398.125 3080.125,398.3125 C3079.6719,398.7969 3079.6719,398.7969 3079.4844,398.8906 C3079.0625,399.1563 3078.375,399.2813 3077.6094,399.2813 C3075.5625,399.2813 3074.2656,398.1875 3074.2656,396.4844 L3074.2656,395.3906 C3074.2656,393.6094 3075.5156,392.2969 3077.25,392.2969 C3077.8281,392.2969 3078.4375,392.4531 3078.9063,392.7031 C3079.3906,392.9844 3079.5625,393.2031 3079.6563,393.6094 C3079.7188,394.0156 3079.75,394.1406 3079.8906,394.2656 C3080.0313,394.4063 3080.2656,394.5156 3080.4844,394.5156 C3080.75,394.5156 3081.0156,394.375 3081.1875,394.1563 C3081.2969,394 3081.3281,393.8125 3081.3281,393.3906 L3081.3281,391.9688 C3081.3281,391.5313 3081.3125,391.4063 3081.2188,391.25 C3081.0625,390.9844 3080.7813,390.8438 3080.4844,390.8438 C3080.1875,390.8438 3079.9844,390.9375 3079.7656,391.25 L3079.5938,391.1719 Z "/><text fill="#000000" font-family="sans-serif" font-size="12" lengthAdjust="spacingAndGlyphs" textLength="29" x="3097.75" y="399.6543">Meat</text><line style="stroke: #A80036; stroke-width: 1.5;" x1="2979.5" x2="3212.5" y1="411.5" y2="411.5"/><rect fill="none" height="6" style="stroke: #C82930; stroke-width: 1.0;" width="6" x="2986.5" y="419.5"/><text fill="#000000" font-family="sans-serif" font-size="11" lengthAdjust="spacingAndGlyphs" textLength="84" x="2998.5" y="425.7104">weight: double</text><rect fill="none" height="6" style="stroke: #C82930; stroke-width: 1.0;" width="6" x="2986.5" y="432.3047"/><text fill="#000000" font-family="sans-serif" font-size="11" lengthAdjust="spacingAndGlyphs" textLength="90" x="2998.5" y="438.5151">type: MeatType</text><line style="stroke: #A80036; stroke-width: 1.5;" x1="2979.5" x2="3212.5" y1="445.1094" y2="445.1094"/><ellipse cx="2989.5" cy="456.1094" fill="#84BE84" rx="3" ry="3" style="stroke: #038048; stroke-width: 1.0;"/><text fill="#000000" font-family="sans-serif" font-size="11" lengthAdjust="spacingAndGlyphs" textLength="209" x="2998.5" y="459.3198">this(type: MeatType, weight: double)</text><ellipse cx="2989.5" cy="468.9141" fill="#84BE84" rx="3" ry="3" style="stroke: #038048; stroke-width: 1.0;"/><text fill="#000000" font-family="sans-serif" font-size="11" lengthAdjust="spacingAndGlyphs" textLength="92" x="2998.5" y="472.1245">weight(): double</text><ellipse cx="2989.5" cy="481.7188" fill="#84BE84" rx="3" ry="3" style="stroke: #038048; stroke-width: 1.0;"/><text fill="#000000" font-family="sans-serif" font-size="11" lengthAdjust="spacingAndGlyphs" textLength="82" x="2998.5" y="484.9292">price(): double</text><ellipse cx="2989.5" cy="494.5234" fill="#84BE84" rx="3" ry="3" style="stroke: #038048; stroke-width: 1.0;"/><text fill="#000000" font-family="sans-serif" font-size="11" lengthAdjust="spacingAndGlyphs" textLength="144" x="2998.5" y="497.7339">caloriesPer100g(): double</text><!--MD5=[5dba5505e6746325cb79590d5d36b5f8]
class Burger--><rect codeLine="85" fill="#FEFECE" filter="url(#f16edar380vk3y)" height="137.6328" id="Burger" style="stroke: #A80036; stroke-width: 1.5;" width="276" x="2044" y="373"/><ellipse cx="2157.25" cy="389" fill="#ADD1B2" rx="11" ry="11" style="stroke: #A80036; stroke-width: 1.0;"/><path d="M2159.5938,384.6719 C2158.6563,384.2344 2158.0625,384.0938 2157.1875,384.0938 C2154.5625,384.0938 2152.5625,386.1719 2152.5625,388.8906 L2152.5625,390.0156 C2152.5625,392.5938 2154.6719,394.4844 2157.5625,394.4844 C2158.7813,394.4844 2159.9375,394.1875 2160.6875,393.6406 C2161.2656,393.2344 2161.5938,392.7813 2161.5938,392.3906 C2161.5938,391.9375 2161.2031,391.5469 2160.7344,391.5469 C2160.5156,391.5469 2160.3125,391.625 2160.125,391.8125 C2159.6719,392.2969 2159.6719,392.2969 2159.4844,392.3906 C2159.0625,392.6563 2158.375,392.7813 2157.6094,392.7813 C2155.5625,392.7813 2154.2656,391.6875 2154.2656,389.9844 L2154.2656,388.8906 C2154.2656,387.1094 2155.5156,385.7969 2157.25,385.7969 C2157.8281,385.7969 2158.4375,385.9531 2158.9063,386.2031 C2159.3906,386.4844 2159.5625,386.7031 2159.6563,387.1094 C2159.7188,387.5156 2159.75,387.6406 2159.8906,387.7656 C2160.0313,387.9063 2160.2656,388.0156 2160.4844,388.0156 C2160.75,388.0156 2161.0156,387.875 2161.1875,387.6563 C2161.2969,387.5 2161.3281,387.3125 2161.3281,386.8906 L2161.3281,385.4688 C2161.3281,385.0313 2161.3125,384.9063 2161.2188,384.75 C2161.0625,384.4844 2160.7813,384.3438 2160.4844,384.3438 C2160.1875,384.3438 2159.9844,384.4375 2159.7656,384.75 L2159.5938,384.6719 Z "/><text fill="#000000" font-family="sans-serif" font-size="12" lengthAdjust="spacingAndGlyphs" textLength="41" x="2177.75" y="393.1543">Burger</text><line style="stroke: #A80036; stroke-width: 1.5;" x1="2045" x2="2319" y1="405" y2="405"/><polygon fill="none" points="2055,412,2051,418,2059,418" style="stroke: #1963A0; stroke-width: 1.0;"/><text fill="#000000" font-family="sans-serif" font-size="11" lengthAdjust="spacingAndGlyphs" textLength="71" x="2064" y="419.2104">name: string</text><polygon fill="none" points="2055,424.8047,2051,430.8047,2059,430.8047" style="stroke: #1963A0; stroke-width: 1.0;"/><text fill="#000000" font-family="sans-serif" font-size="11" lengthAdjust="spacingAndGlyphs" textLength="107" x="2064" y="432.0151">items: FoodProduct</text><line style="stroke: #A80036; stroke-width: 1.5;" x1="2045" x2="2319" y1="438.6094" y2="438.6094"/><ellipse cx="2055" cy="449.6094" fill="#84BE84" rx="3" ry="3" style="stroke: #038048; stroke-width: 1.0;"/><text fill="#000000" font-family="sans-serif" font-size="11" lengthAdjust="spacingAndGlyphs" textLength="250" x="2064" y="452.8198">this(name: string, items: List&lt;FoodProduct&gt;)</text><ellipse cx="2055" cy="462.4141" fill="#84BE84" rx="3" ry="3" style="stroke: #038048; stroke-width: 1.0;"/><text fill="#000000" font-family="sans-serif" font-size="11" lengthAdjust="spacingAndGlyphs" textLength="92" x="2064" y="465.6245">weight(): double</text><ellipse cx="2055" cy="475.2188" fill="#84BE84" rx="3" ry="3" style="stroke: #038048; stroke-width: 1.0;"/><text fill="#000000" font-family="sans-serif" font-size="11" lengthAdjust="spacingAndGlyphs" textLength="82" x="2064" y="478.4292">price(): double</text><ellipse cx="2055" cy="488.0234" fill="#84BE84" rx="3" ry="3" style="stroke: #038048; stroke-width: 1.0;"/><text fill="#000000" font-family="sans-serif" font-size="11" lengthAdjust="spacingAndGlyphs" textLength="98" x="2064" y="491.2339">calories(): double</text><ellipse cx="2055" cy="500.8281" fill="#84BE84" rx="3" ry="3" style="stroke: #038048; stroke-width: 1.0;"/><text fill="#000000" font-family="sans-serif" font-size="11" lengthAdjust="spacingAndGlyphs" textLength="136" x="2064" y="504.0386">caloriesPer100g(): doubl</text><!--MD5=[797fe0268bec6b7ea76f812958bd3e56]
class BurgerBuilder--><rect codeLine="96" fill="#FEFECE" filter="url(#f16edar380vk3y)" height="265.6797" id="BurgerBuilder" style="stroke: #A80036; stroke-width: 1.5;" width="314" x="1538" y="41"/><ellipse cx="1649.25" cy="57" fill="#A9DCDF" rx="11" ry="11" style="stroke: #A80036; stroke-width: 1.0;"/><path d="M1651.3281,58.8125 L1651.7188,59.7969 L1651.3281,59.7969 C1650.875,59.7969 1650.7656,59.8125 1650.6094,59.9219 C1650.3594,60.0781 1650.2031,60.3594 1650.2031,60.6563 C1650.2031,60.9219 1650.3438,61.1719 1650.5625,61.3281 C1650.7031,61.4531 1650.9063,61.5 1651.3281,61.5 L1653.6875,61.5 C1654.0469,61.5 1654.2656,61.4688 1654.4063,61.375 C1654.6563,61.2344 1654.8125,60.9375 1654.8125,60.6563 C1654.8125,60.375 1654.6719,60.125 1654.4531,59.9688 C1654.2813,59.8281 1654.125,59.7969 1653.6563,59.7969 L1650.2656,51.5938 L1646.5938,51.5938 C1646.1406,51.5938 1646.0156,51.6094 1645.8594,51.7031 C1645.6094,51.875 1645.4531,52.1563 1645.4531,52.4375 C1645.4531,52.7188 1645.5938,52.9688 1645.8125,53.1406 C1645.9844,53.25 1646.1563,53.2813 1646.5938,53.2813 L1647.6719,53.2813 L1645.0313,59.7969 C1644.6094,59.7969 1644.4531,59.8125 1644.2969,59.9219 C1644.0469,60.0781 1643.8906,60.3594 1643.8906,60.6563 C1643.8906,61.2188 1644.2656,61.5 1645.0156,61.5 L1647.2813,61.5 C1647.6406,61.5 1647.8594,61.4688 1647.9844,61.375 C1648.25,61.2344 1648.3906,60.9375 1648.3906,60.6563 C1648.3906,60.375 1648.2656,60.125 1648.0469,59.9531 C1647.875,59.8281 1647.7344,59.7969 1647.2813,59.7969 L1646.8906,59.7969 L1647.2813,58.8125 L1651.3281,58.8125 Z M1650.625,57.1094 L1647.9531,57.1094 L1649.2969,53.8438 L1650.625,57.1094 Z "/><text fill="#000000" font-family="sans-serif" font-size="12" font-style="italic" lengthAdjust="spacingAndGlyphs" textLength="83" x="1669.75" y="61.1543">BurgerBuilder</text><line style="stroke: #A80036; stroke-width: 1.5;" x1="1539" x2="1851" y1="73" y2="73"/><polygon fill="none" points="1549,79,1553,83,1549,87,1545,83" style="stroke: #B38D22; stroke-width: 1.0;"/><text fill="#000000" font-family="sans-serif" font-size="11" lengthAdjust="spacingAndGlyphs" textLength="160" x="1558" y="87.2104">products: List&lt;FoodProduct&gt;</text><polygon fill="none" points="1549,91.8047,1553,95.8047,1549,99.8047,1545,95.8047" style="stroke: #B38D22; stroke-width: 1.0;"/><text fill="#000000" font-family="sans-serif" font-size="11" lengthAdjust="spacingAndGlyphs" textLength="71" x="1558" y="100.0151">name: string</text><line style="stroke: #A80036; stroke-width: 1.5;" x1="1539" x2="1851" y1="106.6094" y2="106.6094"/><ellipse cx="1549" cy="117.6094" fill="#84BE84" rx="3" ry="3" style="stroke: #038048; stroke-width: 1.0;"/><text fill="#000000" font-family="sans-serif" font-size="11" lengthAdjust="spacingAndGlyphs" textLength="288" x="1558" y="120.8198">this(name: string, type: MeatType, size: MeatSize)</text><polygon fill="#FFFF44" points="1549,125.4141,1553,129.4141,1549,133.4141,1545,129.4141" style="stroke: #B38D22; stroke-width: 1.0;"/><text fill="#000000" font-family="sans-serif" font-size="11" font-style="italic" lengthAdjust="spacingAndGlyphs" textLength="145" x="1558" y="133.6245">littleMeatPortion(): double</text><polygon fill="#FFFF44" points="1549,138.2188,1553,142.2188,1549,146.2188,1545,142.2188" style="stroke: #B38D22; stroke-width: 1.0;"/><text fill="#000000" font-family="sans-serif" font-size="11" font-style="italic" lengthAdjust="spacingAndGlyphs" textLength="167" x="1558" y="146.4292">mediumMeatPortion(): double</text><polygon fill="#FFFF44" points="1549,151.0234,1553,155.0234,1549,159.0234,1545,155.0234" style="stroke: #B38D22; stroke-width: 1.0;"/><text fill="#000000" font-family="sans-serif" font-size="11" font-style="italic" lengthAdjust="spacingAndGlyphs" textLength="138" x="1558" y="159.2339">bigMeatPortion(): double</text><polygon fill="#FFFF44" points="1549,163.8281,1553,167.8281,1549,171.8281,1545,167.8281" style="stroke: #B38D22; stroke-width: 1.0;"/><text fill="#000000" font-family="sans-serif" font-size="11" font-style="italic" lengthAdjust="spacingAndGlyphs" textLength="134" x="1558" y="172.0386">cheesePortion(): double</text><polygon fill="#FFFF44" points="1549,176.6328,1553,180.6328,1549,184.6328,1545,180.6328" style="stroke: #B38D22; stroke-width: 1.0;"/><text fill="#000000" font-family="sans-serif" font-size="11" font-style="italic" lengthAdjust="spacingAndGlyphs" textLength="125" x="1558" y="184.8433">onionPortion(): double</text><polygon fill="#FFFF44" points="1549,189.4375,1553,193.4375,1549,197.4375,1545,193.4375" style="stroke: #B38D22; stroke-width: 1.0;"/><text fill="#000000" font-family="sans-serif" font-size="11" font-style="italic" lengthAdjust="spacingAndGlyphs" textLength="127" x="1558" y="197.6479">saucePortion(): double</text><polygon fill="#FFFF44" points="1549,202.2422,1553,206.2422,1549,210.2422,1545,206.2422" style="stroke: #B38D22; stroke-width: 1.0;"/><text fill="#000000" font-family="sans-serif" font-size="11" font-style="italic" lengthAdjust="spacingAndGlyphs" textLength="134" x="1558" y="210.4526">tomatoPortion(): double</text><text fill="#000000" font-family="sans-serif" font-size="11" lengthAdjust="spacingAndGlyphs" textLength="0" x="1562" y="223.2573"/><ellipse cx="1549" cy="232.8516" fill="#84BE84" rx="3" ry="3" style="stroke: #038048; stroke-width: 1.0;"/><text fill="#000000" font-family="sans-serif" font-size="11" lengthAdjust="spacingAndGlyphs" textLength="161" x="1558" y="236.062">withCheese(): BurgerBuilder</text><ellipse cx="1549" cy="245.6563" fill="#84BE84" rx="3" ry="3" style="stroke: #038048; stroke-width: 1.0;"/><text fill="#000000" font-family="sans-serif" font-size="11" lengthAdjust="spacingAndGlyphs" textLength="149" x="1558" y="248.8667">withOnion(): BurgerBuilder</text><ellipse cx="1549" cy="258.4609" fill="#84BE84" rx="3" ry="3" style="stroke: #038048; stroke-width: 1.0;"/><text fill="#000000" font-family="sans-serif" font-size="11" lengthAdjust="spacingAndGlyphs" textLength="159" x="1558" y="261.6714">withTomato(): BurgerBuilder</text><ellipse cx="1549" cy="271.2656" fill="#84BE84" rx="3" ry="3" style="stroke: #038048; stroke-width: 1.0;"/><text fill="#000000" font-family="sans-serif" font-size="11" lengthAdjust="spacingAndGlyphs" textLength="152" x="1558" y="274.4761">withSauce(): BurgerBuilder</text><ellipse cx="1549" cy="284.0703" fill="#84BE84" rx="3" ry="3" style="stroke: #038048; stroke-width: 1.0;"/><text fill="#000000" font-family="sans-serif" font-size="11" lengthAdjust="spacingAndGlyphs" textLength="79" x="1558" y="287.2808">cook(): Burger</text><ellipse cx="1549" cy="296.875" fill="#84BE84" rx="3" ry="3" style="stroke: #038048; stroke-width: 1.0;"/><text fill="#000000" font-family="sans-serif" font-size="11" lengthAdjust="spacingAndGlyphs" textLength="141" x="1558" y="300.0854">getMeatWeight(): double</text><!--MD5=[ec2a0eb640fb23dc032ab7fb084fd6b1]
class ExpensiveBurgerBuilder--><rect codeLine="118" fill="#FEFECE" filter="url(#f16edar380vk3y)" height="150.4375" id="ExpensiveBurgerBuilder" style="stroke: #A80036; stroke-width: 1.5;" width="314" x="1550" y="367"/><ellipse cx="1630.25" cy="383" fill="#ADD1B2" rx="11" ry="11" style="stroke: #A80036; stroke-width: 1.0;"/><path d="M1632.5938,378.6719 C1631.6563,378.2344 1631.0625,378.0938 1630.1875,378.0938 C1627.5625,378.0938 1625.5625,380.1719 1625.5625,382.8906 L1625.5625,384.0156 C1625.5625,386.5938 1627.6719,388.4844 1630.5625,388.4844 C1631.7813,388.4844 1632.9375,388.1875 1633.6875,387.6406 C1634.2656,387.2344 1634.5938,386.7813 1634.5938,386.3906 C1634.5938,385.9375 1634.2031,385.5469 1633.7344,385.5469 C1633.5156,385.5469 1633.3125,385.625 1633.125,385.8125 C1632.6719,386.2969 1632.6719,386.2969 1632.4844,386.3906 C1632.0625,386.6563 1631.375,386.7813 1630.6094,386.7813 C1628.5625,386.7813 1627.2656,385.6875 1627.2656,383.9844 L1627.2656,382.8906 C1627.2656,381.1094 1628.5156,379.7969 1630.25,379.7969 C1630.8281,379.7969 1631.4375,379.9531 1631.9063,380.2031 C1632.3906,380.4844 1632.5625,380.7031 1632.6563,381.1094 C1632.7188,381.5156 1632.75,381.6406 1632.8906,381.7656 C1633.0313,381.9063 1633.2656,382.0156 1633.4844,382.0156 C1633.75,382.0156 1634.0156,381.875 1634.1875,381.6563 C1634.2969,381.5 1634.3281,381.3125 1634.3281,380.8906 L1634.3281,379.4688 C1634.3281,379.0313 1634.3125,378.9063 1634.2188,378.75 C1634.0625,378.4844 1633.7813,378.3438 1633.4844,378.3438 C1633.1875,378.3438 1632.9844,378.4375 1632.7656,378.75 L1632.5938,378.6719 Z "/><text fill="#000000" font-family="sans-serif" font-size="12" lengthAdjust="spacingAndGlyphs" textLength="145" x="1650.75" y="387.1543">ExpensiveBurgerBuilder</text><line style="stroke: #A80036; stroke-width: 1.5;" x1="1551" x2="1863" y1="399" y2="399"/><line style="stroke: #A80036; stroke-width: 1.5;" x1="1551" x2="1863" y1="407" y2="407"/><ellipse cx="1561" cy="418" fill="#84BE84" rx="3" ry="3" style="stroke: #038048; stroke-width: 1.0;"/><text fill="#000000" font-family="sans-serif" font-size="11" lengthAdjust="spacingAndGlyphs" textLength="288" x="1570" y="421.2104">this(name: string, type: MeatType, size: MeatSize)</text><polygon fill="#FFFF44" points="1561,425.8047,1565,429.8047,1561,433.8047,1557,429.8047" style="stroke: #B38D22; stroke-width: 1.0;"/><text fill="#000000" font-family="sans-serif" font-size="11" font-style="italic" lengthAdjust="spacingAndGlyphs" textLength="145" x="1570" y="434.0151">littleMeatPortion(): double</text><polygon fill="#FFFF44" points="1561,438.6094,1565,442.6094,1561,446.6094,1557,442.6094" style="stroke: #B38D22; stroke-width: 1.0;"/><text fill="#000000" font-family="sans-serif" font-size="11" font-style="italic" lengthAdjust="spacingAndGlyphs" textLength="167" x="1570" y="446.8198">mediumMeatPortion(): double</text><polygon fill="#FFFF44" points="1561,451.4141,1565,455.4141,1561,459.4141,1557,455.4141" style="stroke: #B38D22; stroke-width: 1.0;"/><text fill="#000000" font-family="sans-serif" font-size="11" font-style="italic" lengthAdjust="spacingAndGlyphs" textLength="138" x="1570" y="459.6245">bigMeatPortion(): double</text><polygon fill="#FFFF44" points="1561,464.2188,1565,468.2188,1561,472.2188,1557,468.2188" style="stroke: #B38D22; stroke-width: 1.0;"/><text fill="#000000" font-family="sans-serif" font-size="11" font-style="italic" lengthAdjust="spacingAndGlyphs" textLength="134" x="1570" y="472.4292">cheesePortion(): double</text><polygon fill="#FFFF44" points="1561,477.0234,1565,481.0234,1561,485.0234,1557,481.0234" style="stroke: #B38D22; stroke-width: 1.0;"/><text fill="#000000" font-family="sans-serif" font-size="11" font-style="italic" lengthAdjust="spacingAndGlyphs" textLength="125" x="1570" y="485.2339">onionPortion(): double</text><polygon fill="#FFFF44" points="1561,489.8281,1565,493.8281,1561,497.8281,1557,493.8281" style="stroke: #B38D22; stroke-width: 1.0;"/><text fill="#000000" font-family="sans-serif" font-size="11" font-style="italic" lengthAdjust="spacingAndGlyphs" textLength="127" x="1570" y="498.0386">saucePortion(): double</text><polygon fill="#FFFF44" points="1561,502.6328,1565,506.6328,1561,510.6328,1557,506.6328" style="stroke: #B38D22; stroke-width: 1.0;"/><text fill="#000000" font-family="sans-serif" font-size="11" font-style="italic" lengthAdjust="spacingAndGlyphs" textLength="134" x="1570" y="510.8433">tomatoPortion(): double</text><!--MD5=[edda6cfd211002752d7edff4cdecf2c6]
class CheapBurgerBuilder--><rect codeLine="131" fill="#FEFECE" filter="url(#f16edar380vk3y)" height="150.4375" id="CheapBurgerBuilder" style="stroke: #A80036; stroke-width: 1.5;" width="314" x="1201" y="367"/><ellipse cx="1293.25" cy="383" fill="#ADD1B2" rx="11" ry="11" style="stroke: #A80036; stroke-width: 1.0;"/><path d="M1295.5938,378.6719 C1294.6563,378.2344 1294.0625,378.0938 1293.1875,378.0938 C1290.5625,378.0938 1288.5625,380.1719 1288.5625,382.8906 L1288.5625,384.0156 C1288.5625,386.5938 1290.6719,388.4844 1293.5625,388.4844 C1294.7813,388.4844 1295.9375,388.1875 1296.6875,387.6406 C1297.2656,387.2344 1297.5938,386.7813 1297.5938,386.3906 C1297.5938,385.9375 1297.2031,385.5469 1296.7344,385.5469 C1296.5156,385.5469 1296.3125,385.625 1296.125,385.8125 C1295.6719,386.2969 1295.6719,386.2969 1295.4844,386.3906 C1295.0625,386.6563 1294.375,386.7813 1293.6094,386.7813 C1291.5625,386.7813 1290.2656,385.6875 1290.2656,383.9844 L1290.2656,382.8906 C1290.2656,381.1094 1291.5156,379.7969 1293.25,379.7969 C1293.8281,379.7969 1294.4375,379.9531 1294.9063,380.2031 C1295.3906,380.4844 1295.5625,380.7031 1295.6563,381.1094 C1295.7188,381.5156 1295.75,381.6406 1295.8906,381.7656 C1296.0313,381.9063 1296.2656,382.0156 1296.4844,382.0156 C1296.75,382.0156 1297.0156,381.875 1297.1875,381.6563 C1297.2969,381.5 1297.3281,381.3125 1297.3281,380.8906 L1297.3281,379.4688 C1297.3281,379.0313 1297.3125,378.9063 1297.2188,378.75 C1297.0625,378.4844 1296.7813,378.3438 1296.4844,378.3438 C1296.1875,378.3438 1295.9844,378.4375 1295.7656,378.75 L1295.5938,378.6719 Z "/><text fill="#000000" font-family="sans-serif" font-size="12" lengthAdjust="spacingAndGlyphs" textLength="121" x="1313.75" y="387.1543">CheapBurgerBuilder</text><line style="stroke: #A80036; stroke-width: 1.5;" x1="1202" x2="1514" y1="399" y2="399"/><line style="stroke: #A80036; stroke-width: 1.5;" x1="1202" x2="1514" y1="407" y2="407"/><ellipse cx="1212" cy="418" fill="#84BE84" rx="3" ry="3" style="stroke: #038048; stroke-width: 1.0;"/><text fill="#000000" font-family="sans-serif" font-size="11" lengthAdjust="spacingAndGlyphs" textLength="288" x="1221" y="421.2104">this(name: string, type: MeatType, size: MeatSize)</text><polygon fill="#FFFF44" points="1212,425.8047,1216,429.8047,1212,433.8047,1208,429.8047" style="stroke: #B38D22; stroke-width: 1.0;"/><text fill="#000000" font-family="sans-serif" font-size="11" font-style="italic" lengthAdjust="spacingAndGlyphs" textLength="145" x="1221" y="434.0151">littleMeatPortion(): double</text><polygon fill="#FFFF44" points="1212,438.6094,1216,442.6094,1212,446.6094,1208,442.6094" style="stroke: #B38D22; stroke-width: 1.0;"/><text fill="#000000" font-family="sans-serif" font-size="11" font-style="italic" lengthAdjust="spacingAndGlyphs" textLength="167" x="1221" y="446.8198">mediumMeatPortion(): double</text><polygon fill="#FFFF44" points="1212,451.4141,1216,455.4141,1212,459.4141,1208,455.4141" style="stroke: #B38D22; stroke-width: 1.0;"/><text fill="#000000" font-family="sans-serif" font-size="11" font-style="italic" lengthAdjust="spacingAndGlyphs" textLength="138" x="1221" y="459.6245">bigMeatPortion(): double</text><polygon fill="#FFFF44" points="1212,464.2188,1216,468.2188,1212,472.2188,1208,468.2188" style="stroke: #B38D22; stroke-width: 1.0;"/><text fill="#000000" font-family="sans-serif" font-size="11" font-style="italic" lengthAdjust="spacingAndGlyphs" textLength="134" x="1221" y="472.4292">cheesePortion(): double</text><polygon fill="#FFFF44" points="1212,477.0234,1216,481.0234,1212,485.0234,1208,481.0234" style="stroke: #B38D22; stroke-width: 1.0;"/><text fill="#000000" font-family="sans-serif" font-size="11" font-style="italic" lengthAdjust="spacingAndGlyphs" textLength="125" x="1221" y="485.2339">onionPortion(): double</text><polygon fill="#FFFF44" points="1212,489.8281,1216,493.8281,1212,497.8281,1208,493.8281" style="stroke: #B38D22; stroke-width: 1.0;"/><text fill="#000000" font-family="sans-serif" font-size="11" font-style="italic" lengthAdjust="spacingAndGlyphs" textLength="127" x="1221" y="498.0386">saucePortion(): double</text><polygon fill="#FFFF44" points="1212,502.6328,1216,506.6328,1212,510.6328,1208,506.6328" style="stroke: #B38D22; stroke-width: 1.0;"/><text fill="#000000" font-family="sans-serif" font-size="11" font-style="italic" lengthAdjust="spacingAndGlyphs" textLength="134" x="1221" y="510.8433">tomatoPortion(): double</text><!--MD5=[098edbf4a796ffceaf70920caaa1a9c7]
class RestaurantFacotory--><rect codeLine="144" fill="#FEFECE" filter="url(#f16edar380vk3y)" height="99.2188" id="RestaurantFacotory" style="stroke: #A80036; stroke-width: 1.5;" width="321" x="792.5" y="124.5"/><ellipse cx="890.75" cy="140.5" fill="#ADD1B2" rx="11" ry="11" style="stroke: #A80036; stroke-width: 1.0;"/><path d="M893.0938,136.1719 C892.1563,135.7344 891.5625,135.5938 890.6875,135.5938 C888.0625,135.5938 886.0625,137.6719 886.0625,140.3906 L886.0625,141.5156 C886.0625,144.0938 888.1719,145.9844 891.0625,145.9844 C892.2813,145.9844 893.4375,145.6875 894.1875,145.1406 C894.7656,144.7344 895.0938,144.2813 895.0938,143.8906 C895.0938,143.4375 894.7031,143.0469 894.2344,143.0469 C894.0156,143.0469 893.8125,143.125 893.625,143.3125 C893.1719,143.7969 893.1719,143.7969 892.9844,143.8906 C892.5625,144.1563 891.875,144.2813 891.1094,144.2813 C889.0625,144.2813 887.7656,143.1875 887.7656,141.4844 L887.7656,140.3906 C887.7656,138.6094 889.0156,137.2969 890.75,137.2969 C891.3281,137.2969 891.9375,137.4531 892.4063,137.7031 C892.8906,137.9844 893.0625,138.2031 893.1563,138.6094 C893.2188,139.0156 893.25,139.1406 893.3906,139.2656 C893.5313,139.4063 893.7656,139.5156 893.9844,139.5156 C894.25,139.5156 894.5156,139.375 894.6875,139.1563 C894.7969,139 894.8281,138.8125 894.8281,138.3906 L894.8281,136.9688 C894.8281,136.5313 894.8125,136.4063 894.7188,136.25 C894.5625,135.9844 894.2813,135.8438 893.9844,135.8438 C893.6875,135.8438 893.4844,135.9375 893.2656,136.25 L893.0938,136.1719 Z "/><text fill="#000000" font-family="sans-serif" font-size="12" lengthAdjust="spacingAndGlyphs" textLength="116" x="911.25" y="144.6543">RestaurantFacotory</text><line style="stroke: #A80036; stroke-width: 1.5;" x1="793.5" x2="1112.5" y1="156.5" y2="156.5"/><rect fill="none" height="6" style="stroke: #C82930; stroke-width: 1.0;" width="6" x="800.5" y="164.5"/><text fill="#000000" font-family="sans-serif" font-size="11" lengthAdjust="spacingAndGlyphs" text-decoration="underline" textLength="157" x="812.5" y="170.7104">instance: RestaurantFactory</text><line style="stroke: #A80036; stroke-width: 1.5;" x1="793.5" x2="1112.5" y1="177.3047" y2="177.3047"/><rect fill="#F24D5C" height="6" style="stroke: #C82930; stroke-width: 1.0;" width="6" x="800.5" y="185.3047"/><text fill="#000000" font-family="sans-serif" font-size="11" lengthAdjust="spacingAndGlyphs" textLength="28" x="812.5" y="191.5151">this()</text><ellipse cx="803.5" cy="201.1094" fill="#84BE84" rx="3" ry="3" style="stroke: #038048; stroke-width: 1.0;"/><text fill="#000000" font-family="sans-serif" font-size="11" lengthAdjust="spacingAndGlyphs" text-decoration="underline" textLength="184" x="812.5" y="204.3198">getInstance(): RestaurantFactory</text><ellipse cx="803.5" cy="213.9141" fill="#84BE84" rx="3" ry="3" style="stroke: #038048; stroke-width: 1.0;"/><text fill="#000000" font-family="sans-serif" font-size="11" lengthAdjust="spacingAndGlyphs" textLength="295" x="812.5" y="217.1245">selectRestaurant(type: RestaurantType): Restaurant</text><!--MD5=[1fd699dbffc138f55414ba788eb337e5]
class CheapRestaurant--><rect codeLine="151" fill="#FEFECE" filter="url(#f16edar380vk3y)" height="73.6094" id="CheapRestaurant" style="stroke: #A80036; stroke-width: 1.5;" width="549" x="616.5" y="405"/><ellipse cx="836.25" cy="421" fill="#ADD1B2" rx="11" ry="11" style="stroke: #A80036; stroke-width: 1.0;"/><path d="M838.5938,416.6719 C837.6563,416.2344 837.0625,416.0938 836.1875,416.0938 C833.5625,416.0938 831.5625,418.1719 831.5625,420.8906 L831.5625,422.0156 C831.5625,424.5938 833.6719,426.4844 836.5625,426.4844 C837.7813,426.4844 838.9375,426.1875 839.6875,425.6406 C840.2656,425.2344 840.5938,424.7813 840.5938,424.3906 C840.5938,423.9375 840.2031,423.5469 839.7344,423.5469 C839.5156,423.5469 839.3125,423.625 839.125,423.8125 C838.6719,424.2969 838.6719,424.2969 838.4844,424.3906 C838.0625,424.6563 837.375,424.7813 836.6094,424.7813 C834.5625,424.7813 833.2656,423.6875 833.2656,421.9844 L833.2656,420.8906 C833.2656,419.1094 834.5156,417.7969 836.25,417.7969 C836.8281,417.7969 837.4375,417.9531 837.9063,418.2031 C838.3906,418.4844 838.5625,418.7031 838.6563,419.1094 C838.7188,419.5156 838.75,419.6406 838.8906,419.7656 C839.0313,419.9063 839.2656,420.0156 839.4844,420.0156 C839.75,420.0156 840.0156,419.875 840.1875,419.6563 C840.2969,419.5 840.3281,419.3125 840.3281,418.8906 L840.3281,417.4688 C840.3281,417.0313 840.3125,416.9063 840.2188,416.75 C840.0625,416.4844 839.7813,416.3438 839.4844,416.3438 C839.1875,416.3438 838.9844,416.4375 838.7656,416.75 L838.5938,416.6719 Z "/><text fill="#000000" font-family="sans-serif" font-size="12" lengthAdjust="spacingAndGlyphs" textLength="101" x="856.75" y="425.1543">CheapRestaurant</text><line style="stroke: #A80036; stroke-width: 1.5;" x1="617.5" x2="1164.5" y1="437" y2="437"/><line style="stroke: #A80036; stroke-width: 1.5;" x1="617.5" x2="1164.5" y1="445" y2="445"/><ellipse cx="627.5" cy="456" fill="#84BE84" rx="3" ry="3" style="stroke: #038048; stroke-width: 1.0;"/><text fill="#000000" font-family="sans-serif" font-size="11" lengthAdjust="spacingAndGlyphs" textLength="345" x="636.5" y="459.2104">orderMenu: BurgerBuilder(menuType: Menus): BurgerBuilder</text><ellipse cx="627.5" cy="468.8047" fill="#84BE84" rx="3" ry="3" style="stroke: #038048; stroke-width: 1.0;"/><text fill="#000000" font-family="sans-serif" font-size="11" lengthAdjust="spacingAndGlyphs" textLength="523" x="636.5" y="472.0151">orderPersonnal: BurgerBuilder(name: string, type: MeatType, size: MeatSize): BurgerBuilder</text><!--MD5=[714a323ea803c80dd4dfd42b424b55c8]
class Restaurant--><rect fill="#FEFECE" filter="url(#f16edar380vk3y)" height="48" id="Restaurant" style="stroke: #A80036; stroke-width: 1.5;" width="98" x="458" y="150"/><ellipse cx="473" cy="166" fill="#B4A7E5" rx="11" ry="11" style="stroke: #A80036; stroke-width: 1.0;"/><path d="M473.9531,162.7813 L475.6719,162.7813 C476.0625,162.7813 476.25,162.75 476.375,162.6719 C476.6406,162.5156 476.7813,162.2344 476.7813,161.9375 C476.7813,161.6719 476.6719,161.4063 476.4375,161.2344 C476.2656,161.125 476.125,161.0938 475.6719,161.0938 L470.5313,161.0938 C470.0938,161.0938 469.9688,161.1094 469.8125,161.2031 C469.5625,161.3594 469.4063,161.6563 469.4063,161.9375 C469.4063,162.2188 469.5469,162.4688 469.7656,162.6406 C469.9219,162.75 470.1094,162.7813 470.5313,162.7813 L472.25,162.7813 L472.25,169.2969 L470.5313,169.2969 C470.0938,169.2969 469.9688,169.3125 469.8125,169.4219 C469.5625,169.5781 469.4063,169.8594 469.4063,170.1563 C469.4063,170.4063 469.5469,170.6719 469.7656,170.8281 C469.9219,170.9531 470.125,171 470.5313,171 L475.6719,171 C476.4219,171 476.7813,170.7188 476.7813,170.1563 C476.7813,169.875 476.6719,169.625 476.4375,169.4531 C476.2656,169.3281 476.125,169.2969 475.6719,169.2969 L473.9531,169.2969 L473.9531,162.7813 Z "/><text fill="#000000" font-family="sans-serif" font-size="12" font-style="italic" lengthAdjust="spacingAndGlyphs" textLength="66" x="487" y="170.1543">Restaurant</text><line style="stroke: #A80036; stroke-width: 1.5;" x1="459" x2="555" y1="182" y2="182"/><line style="stroke: #A80036; stroke-width: 1.5;" x1="459" x2="555" y1="190" y2="190"/><!--MD5=[1235cebdfb46a42e97028911a80bb4e1]
class ExpensiveRestaurant--><rect codeLine="159" fill="#FEFECE" filter="url(#f16edar380vk3y)" height="73.6094" id="ExpensiveRestaurant" style="stroke: #A80036; stroke-width: 1.5;" width="549" x="32.5" y="405"/><ellipse cx="240.25" cy="421" fill="#ADD1B2" rx="11" ry="11" style="stroke: #A80036; stroke-width: 1.0;"/><path d="M242.5938,416.6719 C241.6563,416.2344 241.0625,416.0938 240.1875,416.0938 C237.5625,416.0938 235.5625,418.1719 235.5625,420.8906 L235.5625,422.0156 C235.5625,424.5938 237.6719,426.4844 240.5625,426.4844 C241.7813,426.4844 242.9375,426.1875 243.6875,425.6406 C244.2656,425.2344 244.5938,424.7813 244.5938,424.3906 C244.5938,423.9375 244.2031,423.5469 243.7344,423.5469 C243.5156,423.5469 243.3125,423.625 243.125,423.8125 C242.6719,424.2969 242.6719,424.2969 242.4844,424.3906 C242.0625,424.6563 241.375,424.7813 240.6094,424.7813 C238.5625,424.7813 237.2656,423.6875 237.2656,421.9844 L237.2656,420.8906 C237.2656,419.1094 238.5156,417.7969 240.25,417.7969 C240.8281,417.7969 241.4375,417.9531 241.9063,418.2031 C242.3906,418.4844 242.5625,418.7031 242.6563,419.1094 C242.7188,419.5156 242.75,419.6406 242.8906,419.7656 C243.0313,419.9063 243.2656,420.0156 243.4844,420.0156 C243.75,420.0156 244.0156,419.875 244.1875,419.6563 C244.2969,419.5 244.3281,419.3125 244.3281,418.8906 L244.3281,417.4688 C244.3281,417.0313 244.3125,416.9063 244.2188,416.75 C244.0625,416.4844 243.7813,416.3438 243.4844,416.3438 C243.1875,416.3438 242.9844,416.4375 242.7656,416.75 L242.5938,416.6719 Z "/><text fill="#000000" font-family="sans-serif" font-size="12" lengthAdjust="spacingAndGlyphs" textLength="125" x="260.75" y="425.1543">ExpensiveRestaurant</text><line style="stroke: #A80036; stroke-width: 1.5;" x1="33.5" x2="580.5" y1="437" y2="437"/><line style="stroke: #A80036; stroke-width: 1.5;" x1="33.5" x2="580.5" y1="445" y2="445"/><ellipse cx="43.5" cy="456" fill="#84BE84" rx="3" ry="3" style="stroke: #038048; stroke-width: 1.0;"/><text fill="#000000" font-family="sans-serif" font-size="11" lengthAdjust="spacingAndGlyphs" textLength="345" x="52.5" y="459.2104">orderMenu: BurgerBuilder(menuType: Menus): BurgerBuilder</text><ellipse cx="43.5" cy="468.8047" fill="#84BE84" rx="3" ry="3" style="stroke: #038048; stroke-width: 1.0;"/><text fill="#000000" font-family="sans-serif" font-size="11" lengthAdjust="spacingAndGlyphs" textLength="523" x="52.5" y="472.0151">orderPersonnal: BurgerBuilder(name: string, type: MeatType, size: MeatSize): BurgerBuilder</text><!--MD5=[552ed748fd55e8f4ef5ebf8e2d155b3b]
reverse link Product to FoodProduct--><path d="M2678.74,181.466 C2542.78,196.269 2243.16,241.59 2027,367 C2007.64,378.23 1989.91,395.942 1976.77,411.223 " fill="none" id="Product-backto-FoodProduct" style="stroke: #A80036; stroke-width: 1.0;"/><polygon fill="none" points="2678.12,174.493,2698.74,179.383,2679.57,188.418,2678.12,174.493" style="stroke: #A80036; stroke-width: 1.0;"/><!--MD5=[17771f1e3a7073505db673a31a60ccc5]
reverse link FoodConstituent to FoodProduct--><path d="M1962.94,224.772 C1960.67,279.712 1957.09,366.329 1955.22,411.452 " fill="none" id="FoodConstituent-backto-FoodProduct" style="stroke: #A80036; stroke-width: 1.0;"/><polygon fill="none" points="1955.95,224.433,1963.77,204.739,1969.94,225.011,1955.95,224.433" style="stroke: #A80036; stroke-width: 1.0;"/><!--MD5=[c7bb00f557b7064de441caa57bb018b5]
reverse link Product to Cheddar--><path d="M2693.33,224.322 C2642.15,268.103 2567.14,332.257 2512.02,379.4 " fill="none" id="Product-backto-Cheddar" style="stroke: #A80036; stroke-width: 1.0; stroke-dasharray: 7.0,7.0;"/><polygon fill="none" points="2688.98,218.831,2708.73,211.151,2698.08,229.47,2688.98,218.831" style="stroke: #A80036; stroke-width: 1.0;"/><!--MD5=[674ba5db0554f5f03b11acd534e3bc74]
reverse link Product to DeepFriedOnions--><path d="M2729.57,229.812 C2712.55,273.34 2688.76,334.192 2671.08,379.4 " fill="none" id="Product-backto-DeepFriedOnions" style="stroke: #A80036; stroke-width: 1.0; stroke-dasharray: 7.0,7.0;"/><polygon fill="none" points="2723.06,227.229,2736.87,211.151,2736.1,232.327,2723.06,227.229" style="stroke: #A80036; stroke-width: 1.0;"/><!--MD5=[eeddc02ba8588212e167af5cc8b3cbad]
reverse link Product to Tomato--><path d="M2772.64,229.812 C2789.82,273.34 2813.84,334.192 2831.68,379.4 " fill="none" id="Product-backto-Tomato" style="stroke: #A80036; stroke-width: 1.0; stroke-dasharray: 7.0,7.0;"/><polygon fill="none" points="2766.1,232.324,2765.27,211.151,2779.12,227.184,2766.1,232.324" style="stroke: #A80036; stroke-width: 1.0;"/><!--MD5=[99420863d3e8608c7eb70fbea90d8d7b]
reverse link Product to Sauce--><path d="M2822.27,200.738 C2916.92,235.543 3088.7,300.9 3231,367 C3236.7,369.649 3242.5,372.419 3248.34,375.268 " fill="none" id="Product-backto-Sauce" style="stroke: #A80036; stroke-width: 1.0; stroke-dasharray: 7.0,7.0;"/><polygon fill="none" points="2819.66,207.236,2803.28,193.786,2824.47,194.089,2819.66,207.236" style="stroke: #A80036; stroke-width: 1.0;"/><!--MD5=[62560291af44e429509b5e053a8731ea]
link Sauce to SauceType--><path codeLine="73" d="M3370,523.046 C3370,523.046 3370,555.436 3370,569.605 " fill="none" id="Sauce-SauceType" style="stroke: #A80036; stroke-width: 1.0;"/><polygon fill="#A80036" points="3370,582.616,3374,573.616,3370,577.616,3366,573.616,3370,582.616" style="stroke: #A80036; stroke-width: 1.0;"/><line style="stroke: #A80036; stroke-width: 1.0;" x1="3370" x2="3370" y1="577.616" y2="569.616"/><polygon fill="#A80036" points="3370,511.046,3366,517.046,3370,523.046,3374,517.046,3370,511.046" style="stroke: #A80036; stroke-width: 1.0;"/><text fill="#000000" font-family="sans-serif" font-size="13" lengthAdjust="spacingAndGlyphs" textLength="34" x="3333.0781" y="572.0134">-type</text><!--MD5=[e28b1c320825c79ca289999b4088d23a]
reverse link Product to Meat--><path d="M2813.87,223.474 C2870.68,267.271 2954.56,331.952 3016.11,379.4 " fill="none" id="Product-backto-Meat" style="stroke: #A80036; stroke-width: 1.0; stroke-dasharray: 7.0,7.0;"/><polygon fill="none" points="2809.45,228.906,2797.89,211.151,2818,217.819,2809.45,228.906" style="stroke: #A80036; stroke-width: 1.0;"/><!--MD5=[031598f2f566954d42a4758302543a5a]
link Meat to MeatType--><path codeLine="83" d="M2983.3782,509.2446 C2983.3782,509.2446 2968.07,514.949 2961,517 C2676.42,599.5991 1759.54,615.3523 1456.36,618.3206 " fill="none" id="Meat-MeatType" style="stroke: #A80036; stroke-width: 1.0;"/><polygon fill="#A80036" points="1443.24,618.4447,1452.2791,622.3555,1448.2398,618.3952,1452.2,614.3559,1443.24,618.4447" style="stroke: #A80036; stroke-width: 1.0;"/><line style="stroke: #A80036; stroke-width: 1.0;" x1="1448.2398" x2="1456.245" y1="618.3952" y2="618.3215"/><polygon fill="#A80036" points="2994.45,504.617,2987.3716,503.2402,2983.3782,509.2446,2990.4566,510.6214,2994.45,504.617" style="stroke: #A80036; stroke-width: 1.0;"/><text fill="#000000" font-family="sans-serif" font-size="13" lengthAdjust="spacingAndGlyphs" textLength="34" x="1451.0678" y="614.8075">-type</text><!--MD5=[4cae89c4b426d2787e8a00d005294e4d]
reverse link FoodProduct to Burger--><path d="M2029.04,462.204 C2034.02,462.886 2039,463.438 2043.98,463.859 " fill="none" id="FoodProduct-backto-Burger" style="stroke: #A80036; stroke-width: 1.0; stroke-dasharray: 7.0,7.0;"/><polygon fill="none" points="2027.74,469.083,2009.22,458.793,2030.12,455.286,2027.74,469.083" style="stroke: #A80036; stroke-width: 1.0;"/><!--MD5=[5cedff6cbc740ecdd9a077022059e258]
link Burger to FoodProduct--><path codeLine="94" d="M2032.0498,421.4332 C2032.0498,421.4332 2025.08,422.353 2022.25,422.809 " fill="none" id="Burger-FoodProduct" style="stroke: #A80036; stroke-width: 1.0;"/><polygon fill="#A80036" points="2009.22,425.207,2018.7961,427.509,2014.1371,424.3005,2017.3456,419.6416,2009.22,425.207" style="stroke: #A80036; stroke-width: 1.0;"/><line style="stroke: #A80036; stroke-width: 1.0;" x1="2014.1371" x2="2022.005" y1="424.3005" y2="422.854"/><polygon fill="#A80036" points="2043.98,420.141,2037.5842,416.8103,2032.0498,421.4332,2038.4456,424.7638,2043.98,420.141" style="stroke: #A80036; stroke-width: 1.0;"/><text fill="#000000" font-family="sans-serif" font-size="13" lengthAdjust="spacingAndGlyphs" textLength="57" x="1978.5299" y="412.6618">~items *</text><!--MD5=[1507b161fef6e1b5dae004c78e687b11]
link BurgerBuilder to FoodProduct--><path codeLine="116" d="M1832.1418,315.7923 C1832.1418,315.7923 1866.12,350.683 1882,367 C1893.02,378.325 1905,390.627 1915.95,401.89 " fill="none" id="BurgerBuilder-FoodProduct" style="stroke: #A80036; stroke-width: 1.0;"/><polygon fill="#A80036" points="1925.27,411.469,1921.8598,402.2294,1921.7829,407.8857,1916.1266,407.8088,1925.27,411.469" style="stroke: #A80036; stroke-width: 1.0;"/><line style="stroke: #A80036; stroke-width: 1.0;" x1="1921.7829" x2="1916.21" y1="407.8857" y2="402.1515"/><polygon fill="#A80036" points="1823.77,307.195,1825.0901,314.2842,1832.1418,315.7923,1830.8217,308.703,1823.77,307.195" style="stroke: #A80036; stroke-width: 1.0;"/><text fill="#000000" font-family="sans-serif" font-size="13" lengthAdjust="spacingAndGlyphs" textLength="77" x="1927.4072" y="400.2525">~products *</text><!--MD5=[47e1c6547dd700b9c8a9823141fc4baf]
reverse link BurgerBuilder to ExpensiveBurgerBuilder--><path d="M1701.87,327.311 C1702.49,340.936 1703.09,354.284 1703.65,366.767 " fill="none" id="BurgerBuilder-backto-ExpensiveBurgerBuilder" style="stroke: #A80036; stroke-width: 1.0;"/><polygon fill="none" points="1694.87,327.516,1700.96,307.221,1708.86,326.885,1694.87,327.516" style="stroke: #A80036; stroke-width: 1.0;"/><!--MD5=[e87e1f48ab380cefea424ec6d5d8affb]
link ExpensiveBurgerBuilder to MeatType--><path codeLine="128" d="M1549.5465,522.4076 C1549.5465,522.4076 1482.96,555.981 1453.66,570.759 " fill="none" id="ExpensiveBurgerBuilder-MeatType" style="stroke: #A80036; stroke-width: 1.0;"/><polygon fill="#A80036" points="1441.77,576.754,1451.607,576.271,1446.234,574.5017,1448.0033,569.1287,1441.77,576.754" style="stroke: #A80036; stroke-width: 1.0;"/><line style="stroke: #A80036; stroke-width: 1.0;" x1="1446.234" x2="1453.38" y1="574.5017" y2="570.9"/><polygon fill="#A80036" points="1560.26,517.002,1553.1014,516.1336,1549.5465,522.4076,1556.7051,523.276,1560.26,517.002" style="stroke: #A80036; stroke-width: 1.0;"/><text fill="#000000" font-family="sans-serif" font-size="13" lengthAdjust="spacingAndGlyphs" textLength="34" x="1417.9942" y="566.0289">-type</text><!--MD5=[d293875942b8317489e12d751584ddca]
link ExpensiveBurgerBuilder to MeatSize--><path codeLine="129" d="M1538.218,515.3394 C1538.218,515.3394 1534.37,516.574 1533,517 C1492.95,529.454 1238.94,579.119 1108.74,604.2597 " fill="none" id="ExpensiveBurgerBuilder-MeatSize" style="stroke: #A80036; stroke-width: 1.0;"/><polygon fill="#A80036" points="1095.78,606.7606,1105.3739,608.9872,1100.6899,605.8155,1103.8616,601.1315,1095.78,606.7606" style="stroke: #A80036; stroke-width: 1.0;"/><line style="stroke: #A80036; stroke-width: 1.0;" x1="1100.6899" x2="1108.54" y1="605.8155" y2="604.2978"/><polygon fill="#A80036" points="1549.61,511.568,1542.6569,509.6564,1538.218,515.3394,1545.1712,517.251,1549.61,511.568" style="stroke: #A80036; stroke-width: 1.0;"/><text fill="#000000" font-family="sans-serif" font-size="13" lengthAdjust="spacingAndGlyphs" textLength="30" x="1103.5349" y="601.8025">-size</text><!--MD5=[512faa92f6de9277a2fda1bee425731f]
reverse link BurgerBuilder to CheapBurgerBuilder--><path d="M1522,311.548 C1497.89,330.58 1473.9,349.514 1452.02,366.792 " fill="none" id="BurgerBuilder-backto-CheapBurgerBuilder" style="stroke: #A80036; stroke-width: 1.0;"/><polygon fill="none" points="1517.81,305.941,1537.85,299.044,1526.48,316.93,1517.81,305.941" style="stroke: #A80036; stroke-width: 1.0;"/><!--MD5=[3e8c92562652a2aa2ca304914626348a]
link CheapBurgerBuilder to MeatType--><path codeLine="141" d="M1358,529.13 C1358,529.13 1358,552.848 1358,563.299 " fill="none" id="CheapBurgerBuilder-MeatType" style="stroke: #A80036; stroke-width: 1.0;"/><polygon fill="#A80036" points="1358,576.571,1362,567.571,1358,571.571,1354,567.571,1358,576.571" style="stroke: #A80036; stroke-width: 1.0;"/><line style="stroke: #A80036; stroke-width: 1.0;" x1="1358" x2="1358" y1="571.571" y2="563.571"/><polygon fill="#A80036" points="1358,517.13,1354,523.13,1358,529.13,1362,523.13,1358,517.13" style="stroke: #A80036; stroke-width: 1.0;"/><text fill="#000000" font-family="sans-serif" font-size="13" lengthAdjust="spacingAndGlyphs" textLength="34" x="1321.3969" y="565.8179">-type</text><!--MD5=[a2914c5700eaf3566f04a1a923f96684]
link CheapBurgerBuilder to MeatSize--><path codeLine="142" d="M1210.1291,522.8279 C1210.1291,522.8279 1130.25,565.959 1098.17,583.278 " fill="none" id="CheapBurgerBuilder-MeatSize" style="stroke: #A80036; stroke-width: 1.0;"/><polygon fill="#A80036" points="1086.72,589.459,1096.5401,588.7064,1091.1205,587.0851,1092.7418,581.6656,1086.72,589.459" style="stroke: #A80036; stroke-width: 1.0;"/><line style="stroke: #A80036; stroke-width: 1.0;" x1="1091.1205" x2="1098.16" y1="587.0851" y2="583.283"/><polygon fill="#A80036" points="1220.69,517.13,1213.5102,516.4586,1210.1291,522.8279,1217.3088,523.4993,1220.69,517.13" style="stroke: #A80036; stroke-width: 1.0;"/><text fill="#000000" font-family="sans-serif" font-size="13" lengthAdjust="spacingAndGlyphs" textLength="30" x="1065.4088" y="578.2403">-size</text><!--MD5=[b88f79017d1ad6b106e9bcd39a588be9]
reverse link Restaurant to CheapRestaurant--><path d="M557.129,209.725 C630.118,260.285 764.986,353.709 839.01,404.986 " fill="none" id="Restaurant-backto-CheapRestaurant" style="stroke: #A80036; stroke-width: 1.0; stroke-dasharray: 7.0,7.0;"/><polygon fill="none" points="552.86,215.283,540.406,198.14,560.833,203.775,552.86,215.283" style="stroke: #A80036; stroke-width: 1.0;"/><!--MD5=[5d7ada21352a8487b790fb3052fa5865]
link CheapRestaurant to MeatType--><path codeLine="155" d="M986.631,479.041 C1069.05,510.101 1187.16,554.617 1267.92,585.052 " fill="none" id="CheapRestaurant-to-MeatType" style="stroke: #A80036; stroke-width: 1.0; stroke-dasharray: 7.0,7.0;"/><polygon fill="#A80036" points="1272.7,586.854,1265.681,579.945,1268.0192,585.096,1262.8683,587.4343,1272.7,586.854" style="stroke: #A80036; stroke-width: 1.0;"/><text fill="#000000" font-family="sans-serif" font-size="13" lengthAdjust="spacingAndGlyphs" textLength="34" x="1230.8677" y="580.7982">-type</text><!--MD5=[c942ab3fc1676fd6b4ee9726e71fdda7]
link CheapRestaurant to MeatSize--><path codeLine="156" d="M919.874,479.041 C944.856,510.225 980.704,554.971 1005.09,585.415 " fill="none" id="CheapRestaurant-to-MeatSize" style="stroke: #A80036; stroke-width: 1.0; stroke-dasharray: 7.0,7.0;"/><polygon fill="#A80036" points="1008.31,589.427,1005.8006,579.9032,1005.1822,585.5261,999.5592,584.9077,1008.31,589.427" style="stroke: #A80036; stroke-width: 1.0;"/><text fill="#000000" font-family="sans-serif" font-size="13" lengthAdjust="spacingAndGlyphs" textLength="30" x="969.8441" y="578.2013">-size</text><!--MD5=[613505c928c90bfb6b6ba9975619215c]
link CheapRestaurant to Menus--><path codeLine="157" d="M826.085,479.041 C769.002,510.734 686.686,556.436 631.826,586.895 " fill="none" id="CheapRestaurant-to-Menus" style="stroke: #A80036; stroke-width: 1.0; stroke-dasharray: 7.0,7.0;"/><polygon fill="#A80036" points="627.265,589.427,637.0752,588.5553,631.6364,586.9999,633.1918,581.5611,627.265,589.427" style="stroke: #A80036; stroke-width: 1.0;"/><text fill="#000000" font-family="sans-serif" font-size="13" lengthAdjust="spacingAndGlyphs" textLength="74" x="556.823" y="578.2013">-menuType</text><!--MD5=[15f7e3abaa138301be7321be772c8a3b]
reverse link Restaurant to ExpensiveRestaurant--><path d="M477.451,214.301 C438.826,265.672 371.701,354.947 334.249,404.759 " fill="none" id="Restaurant-backto-ExpensiveRestaurant" style="stroke: #A80036; stroke-width: 1.0; stroke-dasharray: 7.0,7.0;"/><polygon fill="none" points="471.987,209.919,489.601,198.14,483.177,218.333,471.987,209.919" style="stroke: #A80036; stroke-width: 1.0;"/><!--MD5=[e7493574e5f1b821ee8a4b1ad0830564]
link ExpensiveRestaurant to MeatType--><path codeLine="163" d="M445.3673,482.0449 C445.3673,482.0449 548.837,507.758 599,517 C825.188,558.674 885.352,544.224 1113,577 C1161.5,583.983 1215.17,593.033 1259.89,600.944 " fill="none" id="ExpensiveRestaurant-MeatType" style="stroke: #A80036; stroke-width: 1.0; stroke-dasharray: 7.0,7.0;"/><polygon fill="#A80036" points="1272.86,603.2502,1264.6974,597.7391,1267.9369,602.3765,1263.2995,605.616,1272.86,603.2502" style="stroke: #A80036; stroke-width: 1.0;"/><line style="stroke: #A80036; stroke-width: 1.0;" x1="1267.9369" x2="1260.055" y1="602.3765" y2="600.9737"/><polygon fill="#A80036" points="433.759,479.004,438.5495,484.3939,445.3673,482.0449,440.5768,476.655,433.759,479.004" style="stroke: #A80036; stroke-width: 1.0;"/><text fill="#000000" font-family="sans-serif" font-size="13" lengthAdjust="spacingAndGlyphs" textLength="34" x="1231.0399" y="598.4495">-type</text><!--MD5=[cc1d73a9e6c817758a0044727adde128]
link ExpensiveRestaurant to MeatSize--><path codeLine="164" d="M458.8658,482.0028 C458.8658,482.0028 553.822,505.955 599,517 C723.699,547.486 869.008,581.384 955.594,601.4114 " fill="none" id="ExpensiveRestaurant-MeatSize" style="stroke: #A80036; stroke-width: 1.0; stroke-dasharray: 7.0,7.0;"/><polygon fill="#A80036" points="968.454,604.3837,960.5858,598.4599,963.5824,603.2579,958.7844,606.2545,968.454,604.3837" style="stroke: #A80036; stroke-width: 1.0;"/><line style="stroke: #A80036; stroke-width: 1.0;" x1="963.5824" x2="955.7875" y1="603.2579" y2="601.4561"/><polygon fill="#A80036" points="447.235,479.049,452.0658,484.4028,458.8658,482.0028,454.035,476.649,447.235,479.049" style="stroke: #A80036; stroke-width: 1.0;"/><text fill="#000000" font-family="sans-serif" font-size="13" lengthAdjust="spacingAndGlyphs" textLength="30" x="930.3539" y="599.084">-size</text><!--MD5=[22c73b64c7dc9f00dc59902cc14fe1ae]
link ExpensiveRestaurant to Menus--><path codeLine="165" d="M371.6954,485.645 C371.6954,485.645 475.787,554.26 518.177,582.203 " fill="none" id="ExpensiveRestaurant-Menus" style="stroke: #A80036; stroke-width: 1.0; stroke-dasharray: 7.0,7.0;"/><polygon fill="#A80036" points="529.136,589.427,523.8228,581.1342,524.9613,586.6753,519.4202,587.8138,529.136,589.427" style="stroke: #A80036; stroke-width: 1.0;"/><line style="stroke: #A80036; stroke-width: 1.0;" x1="524.9613" x2="518.282" y1="586.6753" y2="582.272"/><polygon fill="#A80036" points="361.676,479.041,364.4844,485.6828,371.6954,485.645,368.887,479.0032,361.676,479.041" style="stroke: #A80036; stroke-width: 1.0;"/><text fill="#000000" font-family="sans-serif" font-size="13" lengthAdjust="spacingAndGlyphs" textLength="74" x="437.2283" y="578.2013">-menuType</text><!--MD5=[dd7fb6287f97ea205f7725c6618b5ef0]
@startuml
' !include ../style/commons.style

package refactor.api.general {

    interface Product {
        weight(): double
        price(): double
    }

    interface FoodConstituent {
        caloriesPer100g(): double
    }

    interface FoodProduct extends Product, FoodConstituent {
        calories(): double
    }

    enum Menus {
        MEAT, FISH, CHEESE, CUSTOM
    }

    enum SauceType {
        BURGER, BARBECUE, BEARNAISE
        + caloriesPer100g(): double
    }

    enum MeatType {
        BEEF, WHITEFISH
        + price(): double
        + caloriesPer100g(): double
    }

    enum MeatSize {
        LITTLE, MEIDUM, BIG
    }

    class Cheddar implements Product {
        - weight: double
        - BASE_PRICE: double = 4
        + this(weight: double)
        + weight(): double
        + price(): double
        + caloriesPer100g(): double
    }

    class DeepFriedOnions implements Product {
        - weight: double
        - BASE_PRICE: double = 1.5
        + this(weight: double)
        + weight(): double
        + price(): double
        + caloriesPer100g(): double
    }

    class Tomato implements Product {
        - weight: double
        - BASE_PRICE: double = 0.5
        + this(weight: double)
        + weight(): double
        + price(): double
        + caloriesPer100g(): double
    }

    class Sauce implements Product {
        - weight: double
        - type: SauceType
        - {static} BASE_PRICE: double = 1
        + this(type: SauceType, weight: double)
        + weight(): double
        + price(): double
        + caloriesPer100g(): double
    }
    Sauce *- -> "-type" SauceType

    class Meat implements Product {
        - weight: double
        - type: MeatType
        + this(type: MeatType, weight: double)
        + weight(): double
        + price(): double
        + caloriesPer100g(): double
    }
    Meat *- -> "-type" MeatType

    class Burger implements FoodProduct {
        ~ name: string
        ~ items: FoodProduct
        + this(name: string, items: List<FoodProduct>)
        + weight(): double
        + price(): double
        + calories(): double
        + caloriesPer100g(): doubl
    }
    Burger *-> "~items *" FoodProduct

    abstract class BurgerBuilder {
        # products: List<FoodProduct>
        # name: string

        + this(name: string, type: MeatType, size: MeatSize)
        # {abstract} littleMeatPortion(): double
        # {abstract} mediumMeatPortion(): double
        # {abstract} bigMeatPortion(): double
        # {abstract} cheesePortion(): double
        # {abstract} onionPortion(): double
        # {abstract} saucePortion(): double
        # {abstract} tomatoPortion(): double

        + withCheese(): BurgerBuilder
        + withOnion(): BurgerBuilder
        + withTomato(): BurgerBuilder
        + withSauce(): BurgerBuilder
        + cook(): Burger
        + getMeatWeight(): double
    }
    BurgerBuilder *- -> "~products *" FoodProduct

    class ExpensiveBurgerBuilder extends BurgerBuilder {
        + this(name: string, type: MeatType, size: MeatSize)
        # {abstract} littleMeatPortion(): double
        # {abstract} mediumMeatPortion(): double
        # {abstract} bigMeatPortion(): double
        # {abstract} cheesePortion(): double
        # {abstract} onionPortion(): double
        # {abstract} saucePortion(): double
        # {abstract} tomatoPortion(): double
    }
    ExpensiveBurgerBuilder *- -> "-type" MeatType
    ExpensiveBurgerBuilder *- -> "-size" MeatSize

    class CheapBurgerBuilder extends BurgerBuilder {
        + this(name: string, type: MeatType, size: MeatSize)
        # {abstract} littleMeatPortion(): double
        # {abstract} mediumMeatPortion(): double
        # {abstract} bigMeatPortion(): double
        # {abstract} cheesePortion(): double
        # {abstract} onionPortion(): double
        # {abstract} saucePortion(): double
        # {abstract} tomatoPortion(): double
    }
    CheapBurgerBuilder *- -> "-type" MeatType
    CheapBurgerBuilder *- -> "-size" MeatSize

    class RestaurantFacotory {
        - {static} instance: RestaurantFactory
        - this()
        + {static} getInstance(): RestaurantFactory
        + selectRestaurant(type: RestaurantType): Restaurant
    }

    class CheapRestaurant implements Restaurant {
        + orderMenu: BurgerBuilder(menuType: Menus): BurgerBuilder
        + orderPersonnal: BurgerBuilder(name: string, type: MeatType, size: MeatSize): BurgerBuilder
    }
    CheapRestaurant ..> "-type" MeatType
    CheapRestaurant ..> "-size" MeatSize
    CheapRestaurant ..> "-menuType" Menus

    class ExpensiveRestaurant implements Restaurant {
        + orderMenu: BurgerBuilder(menuType: Menus): BurgerBuilder
        + orderPersonnal: BurgerBuilder(name: string, type: MeatType, size: MeatSize): BurgerBuilder
    }
    ExpensiveRestaurant *..> "-type" MeatType
    ExpensiveRestaurant *..> "-size" MeatSize
    ExpensiveRestaurant *..> "-menuType" Menus
}
@enduml

@startuml

package refactor.api.general {

    interface Product {
        weight(): double
        price(): double
    }

    interface FoodConstituent {
        caloriesPer100g(): double
    }

    interface FoodProduct extends Product, FoodConstituent {
        calories(): double
    }

    enum Menus {
        MEAT, FISH, CHEESE, CUSTOM
    }

    enum SauceType {
        BURGER, BARBECUE, BEARNAISE
        + caloriesPer100g(): double
    }

    enum MeatType {
        BEEF, WHITEFISH
        + price(): double
        + caloriesPer100g(): double
    }

    enum MeatSize {
        LITTLE, MEIDUM, BIG
    }

    class Cheddar implements Product {
        - weight: double
        - BASE_PRICE: double = 4
        + this(weight: double)
        + weight(): double
        + price(): double
        + caloriesPer100g(): double
    }

    class DeepFriedOnions implements Product {
        - weight: double
        - BASE_PRICE: double = 1.5
        + this(weight: double)
        + weight(): double
        + price(): double
        + caloriesPer100g(): double
    }

    class Tomato implements Product {
        - weight: double
        - BASE_PRICE: double = 0.5
        + this(weight: double)
        + weight(): double
        + price(): double
        + caloriesPer100g(): double
    }

    class Sauce implements Product {
        - weight: double
        - type: SauceType
        - {static} BASE_PRICE: double = 1
        + this(type: SauceType, weight: double)
        + weight(): double
        + price(): double
        + caloriesPer100g(): double
    }
    Sauce *- -> "-type" SauceType

    class Meat implements Product {
        - weight: double
        - type: MeatType
        + this(type: MeatType, weight: double)
        + weight(): double
        + price(): double
        + caloriesPer100g(): double
    }
    Meat *- -> "-type" MeatType

    class Burger implements FoodProduct {
        ~ name: string
        ~ items: FoodProduct
        + this(name: string, items: List<FoodProduct>)
        + weight(): double
        + price(): double
        + calories(): double
        + caloriesPer100g(): doubl
    }
    Burger *-> "~items *" FoodProduct

    abstract class BurgerBuilder {
        # products: List<FoodProduct>
        # name: string

        + this(name: string, type: MeatType, size: MeatSize)
        # {abstract} littleMeatPortion(): double
        # {abstract} mediumMeatPortion(): double
        # {abstract} bigMeatPortion(): double
        # {abstract} cheesePortion(): double
        # {abstract} onionPortion(): double
        # {abstract} saucePortion(): double
        # {abstract} tomatoPortion(): double

        + withCheese(): BurgerBuilder
        + withOnion(): BurgerBuilder
        + withTomato(): BurgerBuilder
        + withSauce(): BurgerBuilder
        + cook(): Burger
        + getMeatWeight(): double
    }
    BurgerBuilder *- -> "~products *" FoodProduct

    class ExpensiveBurgerBuilder extends BurgerBuilder {
        + this(name: string, type: MeatType, size: MeatSize)
        # {abstract} littleMeatPortion(): double
        # {abstract} mediumMeatPortion(): double
        # {abstract} bigMeatPortion(): double
        # {abstract} cheesePortion(): double
        # {abstract} onionPortion(): double
        # {abstract} saucePortion(): double
        # {abstract} tomatoPortion(): double
    }
    ExpensiveBurgerBuilder *- -> "-type" MeatType
    ExpensiveBurgerBuilder *- -> "-size" MeatSize

    class CheapBurgerBuilder extends BurgerBuilder {
        + this(name: string, type: MeatType, size: MeatSize)
        # {abstract} littleMeatPortion(): double
        # {abstract} mediumMeatPortion(): double
        # {abstract} bigMeatPortion(): double
        # {abstract} cheesePortion(): double
        # {abstract} onionPortion(): double
        # {abstract} saucePortion(): double
        # {abstract} tomatoPortion(): double
    }
    CheapBurgerBuilder *- -> "-type" MeatType
    CheapBurgerBuilder *- -> "-size" MeatSize

    class RestaurantFacotory {
        - {static} instance: RestaurantFactory
        - this()
        + {static} getInstance(): RestaurantFactory
        + selectRestaurant(type: RestaurantType): Restaurant
    }

    class CheapRestaurant implements Restaurant {
        + orderMenu: BurgerBuilder(menuType: Menus): BurgerBuilder
        + orderPersonnal: BurgerBuilder(name: string, type: MeatType, size: MeatSize): BurgerBuilder
    }
    CheapRestaurant ..> "-type" MeatType
    CheapRestaurant ..> "-size" MeatSize
    CheapRestaurant ..> "-menuType" Menus

    class ExpensiveRestaurant implements Restaurant {
        + orderMenu: BurgerBuilder(menuType: Menus): BurgerBuilder
        + orderPersonnal: BurgerBuilder(name: string, type: MeatType, size: MeatSize): BurgerBuilder
    }
    ExpensiveRestaurant *..> "-type" MeatType
    ExpensiveRestaurant *..> "-size" MeatSize
    ExpensiveRestaurant *..> "-menuType" Menus
}
@enduml

PlantUML version 1.2020.19beta4(Unknown compile time)
(GPL source distribution)
Java Runtime: Java(TM) SE Runtime Environment
JVM: Java HotSpot(TM) 64-Bit Server VM
Default Encoding: UTF-8
Language: en
Country: US
--></g></svg>